QuixoticSixteen-Italic.ufo
<glyph name="quotedbl" format="2">
  <advance width="583"/>
  <unicode hex="0022"/>
  <outline>
    <contour>
      <point x="302.0" y="724.0" type="line" smooth="yes"/>
      <point x="358.0" y="724.0" type="line" smooth="yes"/>
      <point x="343.0" y="442.0" type="line" smooth="yes"/>
      <point x="314.0" y="414.0" type="line" smooth="yes"/>
      <point x="287.0" y="442.0" type="line" smooth="yes"/>
    </contour>
    <contour>
      <point x="128.0" y="414.0" type="line" smooth="yes"/>
      <point x="101.0" y="442.0" type="line" smooth="yes"/>
      <point x="116.0" y="730.0" type="line" smooth="yes"/>
      <point x="146.0" y="758.0" type="line" smooth="yes"/>
      <point x="172.0" y="730.0" type="line" smooth="yes"/>
      <point x="157.0" y="442.0" type="line" smooth="yes"/>
    </contour>
  </outline>
</glyph>
<glyph name="ampersand" format="2">
  <advance width="583"/>
  <unicode hex="0026"/>
  <outline>
    <contour>
      <point x="474.934570312" y="28.0" type="line" smooth="yes"/>
      <point x="447.934570312" y="0.0" type="line" smooth="yes"/>
      <point x="322.934570312" y="0.0" type="line" smooth="yes"/>
      <point x="325.934570312" y="56.0" type="line" smooth="yes"/>
      <point x="450.934570312" y="56.0" type="line" smooth="yes"/>
    </contour>
    <contour>
      <point x="396.0" y="76.0" type="line" smooth="yes"/>
      <point x="387.0" y="76.0" type="line" smooth="yes"/>
      <point x="321.0" y="245.0" type="line" smooth="yes"/>
      <point x="327.0" y="352.0" type="line" smooth="yes"/>
      <point x="336.0" y="352.0" type="line" smooth="yes"/>
      <point x="402.0" y="183.0" type="line" smooth="yes"/>
    </contour>
    <contour>
      <point x="278.0" y="724.0" type="line" smooth="yes"/>
      <point x="330.0" y="724.0" type="line" smooth="yes"/>
      <point x="315.0" y="442.0" type="line" smooth="yes"/>
      <point x="288.0" y="414.0" type="line" smooth="yes"/>
      <point x="263.0" y="442.0" type="line" smooth="yes"/>
    </contour>
    <contour>
      <point x="178.0" y="724.0" type="line" smooth="yes"/>
      <point x="187.0" y="724.0" type="line" smooth="yes"/>
      <point x="253.0" y="555.0" type="line" smooth="yes"/>
      <point x="247.0" y="448.0" type="line" smooth="yes"/>
      <point x="238.0" y="448.0" type="line" smooth="yes"/>
      <point x="172.0" y="617.0" type="line" smooth="yes"/>
    </contour>
    <contour>
      <point x="130.0" y="400.0" type="line" smooth="yes"/>
      <point x="158.0" y="428.0" type="line" smooth="yes"/>
      <point x="253.0" y="428.0" type="line" smooth="yes"/>
      <point x="277.0" y="400.0" type="line" smooth="yes"/>
      <point x="250.0" y="372.0" type="line" smooth="yes"/>
      <point x="155.0" y="372.0" type="line" smooth="yes"/>
    </contour>
    <contour>
      <point x="99.0" y="42.0" type="line" smooth="yes"/>
      <point x="75.0" y="70.0" type="line" smooth="yes"/>
      <point x="90.0" y="358.0" type="line" smooth="yes"/>
      <point x="117.0" y="386.0" type="line" smooth="yes"/>
      <point x="142.0" y="358.0" type="line" smooth="yes"/>
      <point x="127.0" y="70.0" type="line" smooth="yes"/>
    </contour>
    <contour>
      <point x="111.0" y="28.0" type="line" smooth="yes"/>
      <point x="138.0" y="56.0" type="line" smooth="yes"/>
      <point x="263.0" y="56.0" type="line" smooth="yes"/>
      <point x="260.0" y="0.0" type="line" smooth="yes"/>
      <point x="135.0" y="0.0" type="line" smooth="yes"/>
    </contour>
    <contour>
      <point x="149.991210938" y="772.0" type="line" smooth="yes"/>
      <point x="176.991210938" y="800.0" type="line" smooth="yes"/>
      <point x="301.991210938" y="800.0" type="line" smooth="yes"/>
      <point x="298.991210938" y="744.0" type="line" smooth="yes"/>
      <point x="173.991210938" y="744.0" type="line" smooth="yes"/>
    </contour>
  </outline>
</glyph>
<glyph name="quotesingle" format="2">
  <advance width="583"/>
  <unicode hex="0027"/>
  <outline>
    <contour>
      <point x="278.0" y="724.0" type="line" smooth="yes"/>
      <point x="330.0" y="724.0" type="line" smooth="yes"/>
      <point x="315.0" y="442.0" type="line" smooth="yes"/>
      <point x="288.0" y="414.0" type="line" smooth="yes"/>
      <point x="263.0" y="442.0" type="line" smooth="yes"/>
    </contour>
  </outline>
</glyph>
<glyph name="parenleft" format="2">
  <advance width="583"/>
  <unicode hex="0028"/>
  <outline>
    <contour>
      <point x="425.0" y="76.0" type="line" smooth="yes"/>
      <point x="415.0" y="76.0" type="line" smooth="yes"/>
      <point x="326.0" y="245.0" type="line" smooth="yes"/>
      <point x="321.0" y="352.0" type="line" smooth="yes"/>
      <point x="331.0" y="352.0" type="line" smooth="yes"/>
      <point x="419.0" y="183.0" type="line" smooth="yes"/>
    </contour>
    <contour>
      <point x="391.0" y="724.0" type="line" smooth="yes"/>
      <point x="397.0" y="617.0" type="line" smooth="yes"/>
      <point x="326.0" y="448.0" type="line" smooth="yes"/>
      <point x="316.0" y="448.0" type="line" smooth="yes"/>
      <point x="310.0" y="555.0" type="line" smooth="yes"/>
      <point x="381.0" y="724.0" type="line" smooth="yes"/>
    </contour>
  </outline>
</glyph>
<glyph name="parenright" format="2">
  <advance width="583"/>
  <unicode hex="0029"/>
  <outline>
    <contour>
      <point x="144.0" y="76.0" type="line" smooth="yes"/>
      <point x="150.0" y="183.0" type="line" smooth="yes"/>
      <point x="233.0" y="352.0" type="line" smooth="yes"/>
      <point x="242.0" y="352.0" type="line" smooth="yes"/>
      <point x="237.0" y="245.0" type="line" smooth="yes"/>
      <point x="153.0" y="76.0" type="line" smooth="yes"/>
    </contour>
    <contour>
      <point x="178.0" y="724.0" type="line" smooth="yes"/>
      <point x="187.0" y="724.0" type="line" smooth="yes"/>
      <point x="253.0" y="555.0" type="line" smooth="yes"/>
      <point x="247.0" y="448.0" type="line" smooth="yes"/>
      <point x="238.0" y="448.0" type="line" smooth="yes"/>
      <point x="172.0" y="617.0" type="line" smooth="yes"/>
    </contour>
  </outline>
</glyph>
<glyph name="comma" format="2">
  <advance width="583"/>
  <unicode hex="002C"/>
  <outline>
    <contour>
      <point x="150.0" y="76.0" type="line" smooth="yes"/>
      <point x="144.0" y="183.0" type="line" smooth="yes"/>
      <point x="216.0" y="352.0" type="line" smooth="yes"/>
      <point x="226.0" y="352.0" type="line" smooth="yes"/>
      <point x="231.0" y="245.0" type="line" smooth="yes"/>
      <point x="160.0" y="76.0" type="line" smooth="yes"/>
    </contour>
  </outline>
</glyph>
<glyph name="hyphen" format="2">
  <advance width="583"/>
  <unicode hex="002D"/>
  <outline>
    <contour>
      <point x="285.0" y="400.0" type="line" smooth="yes"/>
      <point x="312.0" y="428.0" type="line" smooth="yes"/>
      <point x="414.0" y="428.0" type="line" smooth="yes"/>
      <point x="443.0" y="400.0" type="line" smooth="yes"/>
      <point x="417.0" y="372.0" type="line" smooth="yes"/>
      <point x="315.0" y="372.0" type="line" smooth="yes"/>
    </contour>
    <contour>
      <point x="99.0" y="400.0" type="line" smooth="yes"/>
      <point x="126.0" y="428.0" type="line" smooth="yes"/>
      <point x="228.0" y="428.0" type="line" smooth="yes"/>
      <point x="257.0" y="400.0" type="line" smooth="yes"/>
      <point x="231.0" y="372.0" type="line" smooth="yes"/>
      <point x="129.0" y="372.0" type="line" smooth="yes"/>
    </contour>
  </outline>
</glyph>
<glyph name="period" format="2">
  <advance width="583"/>
  <unicode hex="002E"/>
  <outline>
    <contour>
      <point x="111.0" y="28.0" type="line" smooth="yes"/>
      <point x="138.0" y="56.0" type="line" smooth="yes"/>
      <point x="263.0" y="56.0" type="line" smooth="yes"/>
      <point x="260.0" y="0.0" type="line" smooth="yes"/>
      <point x="135.0" y="0.0" type="line" smooth="yes"/>
    </contour>
  </outline>
</glyph>
<glyph name="one" format="2">
  <advance width="583"/>
  <unicode hex="0031"/>
  <outline>
    <contour>
      <point x="479.0" y="42.0" type="line" smooth="yes"/>
      <point x="453.0" y="70.0" type="line" smooth="yes"/>
      <point x="468.0" y="358.0" type="line" smooth="yes"/>
      <point x="497.0" y="386.0" type="line" smooth="yes"/>
      <point x="524.0" y="358.0" type="line" smooth="yes"/>
      <point x="509.0" y="70.0" type="line" smooth="yes"/>
    </contour>
    <contour>
      <point x="499.0" y="414.0" type="line" smooth="yes"/>
      <point x="472.0" y="442.0" type="line" smooth="yes"/>
      <point x="487.0" y="730.0" type="line" smooth="yes"/>
      <point x="517.0" y="758.0" type="line" smooth="yes"/>
      <point x="543.0" y="730.0" type="line" smooth="yes"/>
      <point x="528.0" y="442.0" type="line" smooth="yes"/>
    </contour>
  </outline>
</glyph>
<glyph name="six" format="2">
  <advance width="583"/>
  <unicode hex="0036"/>
  <outline>
    <contour>
      <point x="426.0" y="28.0" type="line" smooth="yes"/>
      <point x="399.0" y="0.0" type="line" smooth="yes"/>
      <point x="274.0" y="0.0" type="line" smooth="yes"/>
      <point x="277.0" y="56.0" type="line" smooth="yes"/>
      <point x="401.0" y="56.0" type="line" smooth="yes"/>
    </contour>
    <contour>
      <point x="465.0" y="772.0" type="line" smooth="yes"/>
      <point x="438.0" y="744.0" type="line" smooth="yes"/>
      <point x="313.0" y="744.0" type="line" smooth="yes"/>
      <point x="316.0" y="800.0" type="line" smooth="yes"/>
      <point x="440.0" y="800.0" type="line" smooth="yes"/>
    </contour>
    <contour>
      <point x="316.0" y="400.0" type="line" smooth="yes"/>
      <point x="344.0" y="428.0" type="line" smooth="yes"/>
      <point x="439.0" y="428.0" type="line" smooth="yes"/>
      <point x="463.0" y="400.0" type="line" smooth="yes"/>
      <point x="436.0" y="372.0" type="line" smooth="yes"/>
      <point x="341.0" y="372.0" type="line" smooth="yes"/>
    </contour>
    <contour>
      <point x="130.0" y="400.0" type="line" smooth="yes"/>
      <point x="158.0" y="428.0" type="line" smooth="yes"/>
      <point x="253.0" y="428.0" type="line" smooth="yes"/>
      <point x="277.0" y="400.0" type="line" smooth="yes"/>
      <point x="250.0" y="372.0" type="line" smooth="yes"/>
      <point x="155.0" y="372.0" type="line" smooth="yes"/>
    </contour>
    <contour>
      <point x="119.0" y="414.0" type="line" smooth="yes"/>
      <point x="94.0" y="442.0" type="line" smooth="yes"/>
      <point x="109.0" y="730.0" type="line" smooth="yes"/>
      <point x="137.0" y="758.0" type="line" smooth="yes"/>
      <point x="161.0" y="730.0" type="line" smooth="yes"/>
      <point x="146.0" y="442.0" type="line" smooth="yes"/>
    </contour>
    <contour>
      <point x="99.0" y="42.0" type="line" smooth="yes"/>
      <point x="75.0" y="70.0" type="line" smooth="yes"/>
      <point x="90.0" y="358.0" type="line" smooth="yes"/>
      <point x="117.0" y="386.0" type="line" smooth="yes"/>
      <point x="142.0" y="358.0" type="line" smooth="yes"/>
      <point x="127.0" y="70.0" type="line" smooth="yes"/>
    </contour>
    <contour>
      <point x="111.0" y="28.0" type="line" smooth="yes"/>
      <point x="138.0" y="56.0" type="line" smooth="yes"/>
      <point x="263.0" y="56.0" type="line" smooth="yes"/>
      <point x="260.0" y="0.0" type="line" smooth="yes"/>
      <point x="135.0" y="0.0" type="line" smooth="yes"/>
    </contour>
    <contour>
      <point x="437.0" y="42.0" type="line" smooth="yes"/>
      <point x="412.0" y="70.0" type="line" smooth="yes"/>
      <point x="427.0" y="358.0" type="line" smooth="yes"/>
      <point x="455.0" y="386.0" type="line" smooth="yes"/>
      <point x="479.0" y="358.0" type="line" smooth="yes"/>
      <point x="464.0" y="70.0" type="line" smooth="yes"/>
    </contour>
    <contour>
      <point x="150.0" y="772.0" type="line" smooth="yes"/>
      <point x="177.0" y="800.0" type="line" smooth="yes"/>
      <point x="302.0" y="800.0" type="line" smooth="yes"/>
      <point x="299.0" y="744.0" type="line" smooth="yes"/>
      <point x="174.0" y="744.0" type="line" smooth="yes"/>
    </contour>
  </outline>
</glyph>
<glyph name="colon" format="2">
  <advance width="583"/>
  <unicode hex="003A"/>
  <outline>
    <contour>
      <point x="99.0" y="400.0" type="line" smooth="yes"/>
      <point x="126.0" y="428.0" type="line" smooth="yes"/>
      <point x="228.0" y="428.0" type="line" smooth="yes"/>
      <point x="257.0" y="400.0" type="line" smooth="yes"/>
      <point x="231.0" y="372.0" type="line" smooth="yes"/>
      <point x="129.0" y="372.0" type="line" smooth="yes"/>
    </contour>
    <contour>
      <point x="119.0" y="28.0" type="line" smooth="yes"/>
      <point x="145.0" y="56.0" type="line" smooth="yes"/>
      <point x="279.0" y="56.0" type="line" smooth="yes"/>
      <point x="282.0" y="0.0" type="line" smooth="yes"/>
      <point x="148.0" y="0.0" type="line" smooth="yes"/>
    </contour>
  </outline>
</glyph>
<glyph name="semicolon" format="2">
  <advance width="583"/>
  <unicode hex="003B"/>
  <outline>
    <contour>
      <point x="158.0" y="76.0" type="line" smooth="yes"/>
      <point x="164.0" y="183.0" type="line" smooth="yes"/>
      <point x="252.0" y="352.0" type="line" smooth="yes"/>
      <point x="262.0" y="352.0" type="line" smooth="yes"/>
      <point x="257.0" y="245.0" type="line" smooth="yes"/>
      <point x="168.0" y="76.0" type="line" smooth="yes"/>
    </contour>
    <contour>
      <point x="160.0" y="772.0" type="line" smooth="yes"/>
      <point x="190.0" y="800.0" type="line" smooth="yes"/>
      <point x="324.0" y="800.0" type="line" smooth="yes"/>
      <point x="321.0" y="744.0" type="line" smooth="yes"/>
      <point x="187.0" y="744.0" type="line" smooth="yes"/>
    </contour>
  </outline>
</glyph>
<glyph name="B" format="2">
  <advance width="583"/>
  <unicode hex="0042"/>
  <outline>
    <contour>
      <point x="474.934570312" y="28.0" type="line" smooth="yes"/>
      <point x="447.934570312" y="0.0" type="line" smooth="yes"/>
      <point x="322.934570312" y="0.0" type="line" smooth="yes"/>
      <point x="325.934570312" y="56.0" type="line" smooth="yes"/>
      <point x="450.934570312" y="56.0" type="line" smooth="yes"/>
    </contour>
    <contour>
      <point x="513.92578125" y="772.0" type="line" smooth="yes"/>
      <point x="486.92578125" y="744.0" type="line" smooth="yes"/>
      <point x="361.92578125" y="744.0" type="line" smooth="yes"/>
      <point x="364.92578125" y="800.0" type="line" smooth="yes"/>
      <point x="489.92578125" y="800.0" type="line" smooth="yes"/>
    </contour>
    <contour>
      <point x="316.0" y="400.0" type="line" smooth="yes"/>
      <point x="344.0" y="428.0" type="line" smooth="yes"/>
      <point x="439.0" y="428.0" type="line" smooth="yes"/>
      <point x="463.0" y="400.0" type="line" smooth="yes"/>
      <point x="436.0" y="372.0" type="line" smooth="yes"/>
      <point x="341.0" y="372.0" type="line" smooth="yes"/>
    </contour>
    <contour>
      <point x="244.0" y="76.0" type="line" smooth="yes"/>
      <point x="259.0" y="358.0" type="line" smooth="yes"/>
      <point x="287.0" y="386.0" type="line" smooth="yes"/>
      <point x="311.0" y="358.0" type="line" smooth="yes"/>
      <point x="296.0" y="76.0" type="line" smooth="yes"/>
    </contour>
    <contour>
      <point x="278.0" y="724.0" type="line" smooth="yes"/>
      <point x="330.0" y="724.0" type="line" smooth="yes"/>
      <point x="315.0" y="442.0" type="line" smooth="yes"/>
      <point x="288.0" y="414.0" type="line" smooth="yes"/>
      <point x="263.0" y="442.0" type="line" smooth="yes"/>
    </contour>
    <contour>
      <point x="111.0" y="28.0" type="line" smooth="yes"/>
      <point x="138.0" y="56.0" type="line" smooth="yes"/>
      <point x="263.0" y="56.0" type="line" smooth="yes"/>
      <point x="260.0" y="0.0" type="line" smooth="yes"/>
      <point x="135.0" y="0.0" type="line" smooth="yes"/>
    </contour>
    <contour>
      <point x="437.0" y="42.0" type="line" smooth="yes"/>
      <point x="412.0" y="70.0" type="line" smooth="yes"/>
      <point x="427.0" y="358.0" type="line" smooth="yes"/>
      <point x="455.0" y="386.0" type="line" smooth="yes"/>
      <point x="479.0" y="358.0" type="line" smooth="yes"/>
      <point x="464.0" y="70.0" type="line" smooth="yes"/>
    </contour>
    <contour>
      <point x="456.0" y="414.0" type="line" smooth="yes"/>
      <point x="432.0" y="442.0" type="line" smooth="yes"/>
      <point x="447.0" y="730.0" type="line" smooth="yes"/>
      <point x="474.0" y="758.0" type="line" smooth="yes"/>
      <point x="499.0" y="730.0" type="line" smooth="yes"/>
      <point x="484.0" y="442.0" type="line" smooth="yes"/>
    </contour>
    <contour>
      <point x="149.991210938" y="772.0" type="line" smooth="yes"/>
      <point x="176.991210938" y="800.0" type="line" smooth="yes"/>
      <point x="301.991210938" y="800.0" type="line" smooth="yes"/>
      <point x="298.991210938" y="744.0" type="line" smooth="yes"/>
      <point x="173.991210938" y="744.0" type="line" smooth="yes"/>
    </contour>
  </outline>
</glyph>
<glyph name="L" format="2">
  <advance width="583"/>
  <unicode hex="004C"/>
  <outline>
    <contour>
      <point x="474.934570312" y="28.0" type="line" smooth="yes"/>
      <point x="447.934570312" y="0.0" type="line" smooth="yes"/>
      <point x="322.934570312" y="0.0" type="line" smooth="yes"/>
      <point x="325.934570312" y="56.0" type="line" smooth="yes"/>
      <point x="450.934570312" y="56.0" type="line" smooth="yes"/>
    </contour>
    <contour>
      <point x="119.0" y="414.0" type="line" smooth="yes"/>
      <point x="94.0" y="442.0" type="line" smooth="yes"/>
      <point x="109.0" y="730.0" type="line" smooth="yes"/>
      <point x="137.0" y="758.0" type="line" smooth="yes"/>
      <point x="161.0" y="730.0" type="line" smooth="yes"/>
      <point x="146.0" y="442.0" type="line" smooth="yes"/>
    </contour>
    <contour>
      <point x="99.0" y="42.0" type="line" smooth="yes"/>
      <point x="75.0" y="70.0" type="line" smooth="yes"/>
      <point x="90.0" y="358.0" type="line" smooth="yes"/>
      <point x="117.0" y="386.0" type="line" smooth="yes"/>
      <point x="142.0" y="358.0" type="line" smooth="yes"/>
      <point x="127.0" y="70.0" type="line" smooth="yes"/>
    </contour>
    <contour>
      <point x="111.0" y="28.0" type="line" smooth="yes"/>
      <point x="138.0" y="56.0" type="line" smooth="yes"/>
      <point x="263.0" y="56.0" type="line" smooth="yes"/>
      <point x="260.0" y="0.0" type="line" smooth="yes"/>
      <point x="135.0" y="0.0" type="line" smooth="yes"/>
    </contour>
  </outline>
</glyph>
<glyph name="N" format="2">
  <advance width="583"/>
  <unicode hex="004E"/>
  <outline>
    <contour>
      <point x="396.0" y="76.0" type="line" smooth="yes"/>
      <point x="387.0" y="76.0" type="line" smooth="yes"/>
      <point x="321.0" y="245.0" type="line" smooth="yes"/>
      <point x="327.0" y="352.0" type="line" smooth="yes"/>
      <point x="336.0" y="352.0" type="line" smooth="yes"/>
      <point x="402.0" y="183.0" type="line" smooth="yes"/>
    </contour>
    <contour>
      <point x="178.0" y="724.0" type="line" smooth="yes"/>
      <point x="187.0" y="724.0" type="line" smooth="yes"/>
      <point x="253.0" y="555.0" type="line" smooth="yes"/>
      <point x="247.0" y="448.0" type="line" smooth="yes"/>
      <point x="238.0" y="448.0" type="line" smooth="yes"/>
      <point x="172.0" y="617.0" type="line" smooth="yes"/>
    </contour>
    <contour>
      <point x="119.0" y="414.0" type="line" smooth="yes"/>
      <point x="94.0" y="442.0" type="line" smooth="yes"/>
      <point x="109.0" y="730.0" type="line" smooth="yes"/>
      <point x="137.0" y="758.0" type="line" smooth="yes"/>
      <point x="161.0" y="730.0" type="line" smooth="yes"/>
      <point x="146.0" y="442.0" type="line" smooth="yes"/>
    </contour>
    <contour>
      <point x="99.0" y="42.0" type="line" smooth="yes"/>
      <point x="75.0" y="70.0" type="line" smooth="yes"/>
      <point x="90.0" y="358.0" type="line" smooth="yes"/>
      <point x="117.0" y="386.0" type="line" smooth="yes"/>
      <point x="142.0" y="358.0" type="line" smooth="yes"/>
      <point x="127.0" y="70.0" type="line" smooth="yes"/>
    </contour>
    <contour>
      <point x="437.0" y="42.0" type="line" smooth="yes"/>
      <point x="412.0" y="70.0" type="line" smooth="yes"/>
      <point x="427.0" y="358.0" type="line" smooth="yes"/>
      <point x="455.0" y="386.0" type="line" smooth="yes"/>
      <point x="479.0" y="358.0" type="line" smooth="yes"/>
      <point x="464.0" y="70.0" type="line" smooth="yes"/>
    </contour>
    <contour>
      <point x="456.0" y="414.0" type="line" smooth="yes"/>
      <point x="432.0" y="442.0" type="line" smooth="yes"/>
      <point x="447.0" y="730.0" type="line" smooth="yes"/>
      <point x="474.0" y="758.0" type="line" smooth="yes"/>
      <point x="499.0" y="730.0" type="line" smooth="yes"/>
      <point x="484.0" y="442.0" type="line" smooth="yes"/>
    </contour>
  </outline>
</glyph>
<glyph name="T" format="2">
  <advance width="583"/>
  <unicode hex="0054"/>
  <outline>
    <contour>
      <point x="513.92578125" y="772.0" type="line" smooth="yes"/>
      <point x="486.92578125" y="744.0" type="line" smooth="yes"/>
      <point x="361.92578125" y="744.0" type="line" smooth="yes"/>
      <point x="364.92578125" y="800.0" type="line" smooth="yes"/>
      <point x="489.92578125" y="800.0" type="line" smooth="yes"/>
    </contour>
    <contour>
      <point x="244.0" y="76.0" type="line" smooth="yes"/>
      <point x="259.0" y="358.0" type="line" smooth="yes"/>
      <point x="287.0" y="386.0" type="line" smooth="yes"/>
      <point x="311.0" y="358.0" type="line" smooth="yes"/>
      <point x="296.0" y="76.0" type="line" smooth="yes"/>
    </contour>
    <contour>
      <point x="278.0" y="724.0" type="line" smooth="yes"/>
      <point x="330.0" y="724.0" type="line" smooth="yes"/>
      <point x="315.0" y="442.0" type="line" smooth="yes"/>
      <point x="288.0" y="414.0" type="line" smooth="yes"/>
      <point x="263.0" y="442.0" type="line" smooth="yes"/>
    </contour>
    <contour>
      <point x="149.991210938" y="772.0" type="line" smooth="yes"/>
      <point x="176.991210938" y="800.0" type="line" smooth="yes"/>
      <point x="301.991210938" y="800.0" type="line" smooth="yes"/>
      <point x="298.991210938" y="744.0" type="line" smooth="yes"/>
      <point x="173.991210938" y="744.0" type="line" smooth="yes"/>
    </contour>
  </outline>
</glyph>
<glyph name="V" format="2">
  <advance width="583"/>
  <unicode hex="0056"/>
  <outline>
    <contour>
      <point x="144.0" y="76.0" type="line" smooth="yes"/>
      <point x="150.0" y="183.0" type="line" smooth="yes"/>
      <point x="233.0" y="352.0" type="line" smooth="yes"/>
      <point x="242.0" y="352.0" type="line" smooth="yes"/>
      <point x="237.0" y="245.0" type="line" smooth="yes"/>
      <point x="153.0" y="76.0" type="line" smooth="yes"/>
    </contour>
    <contour>
      <point x="430.0" y="724.0" type="line" smooth="yes"/>
      <point x="425.0" y="617.0" type="line" smooth="yes"/>
      <point x="341.0" y="448.0" type="line" smooth="yes"/>
      <point x="332.0" y="448.0" type="line" smooth="yes"/>
      <point x="338.0" y="555.0" type="line" smooth="yes"/>
      <point x="421.0" y="724.0" type="line" smooth="yes"/>
    </contour>
    <contour>
      <point x="119.0" y="414.0" type="line" smooth="yes"/>
      <point x="94.0" y="442.0" type="line" smooth="yes"/>
      <point x="109.0" y="730.0" type="line" smooth="yes"/>
      <point x="137.0" y="758.0" type="line" smooth="yes"/>
      <point x="161.0" y="730.0" type="line" smooth="yes"/>
      <point x="146.0" y="442.0" type="line" smooth="yes"/>
    </contour>
    <contour>
      <point x="99.0" y="42.0" type="line" smooth="yes"/>
      <point x="75.0" y="70.0" type="line" smooth="yes"/>
      <point x="90.0" y="358.0" type="line" smooth="yes"/>
      <point x="117.0" y="386.0" type="line" smooth="yes"/>
      <point x="142.0" y="358.0" type="line" smooth="yes"/>
      <point x="127.0" y="70.0" type="line" smooth="yes"/>
    </contour>
  </outline>
</glyph>
<glyph name="X" format="2">
  <advance width="583"/>
  <unicode hex="0058"/>
  <outline>
    <contour>
      <point x="396.0" y="76.0" type="line" smooth="yes"/>
      <point x="387.0" y="76.0" type="line" smooth="yes"/>
      <point x="321.0" y="245.0" type="line" smooth="yes"/>
      <point x="327.0" y="352.0" type="line" smooth="yes"/>
      <point x="336.0" y="352.0" type="line" smooth="yes"/>
      <point x="402.0" y="183.0" type="line" smooth="yes"/>
    </contour>
    <contour>
      <point x="144.0" y="76.0" type="line" smooth="yes"/>
      <point x="150.0" y="183.0" type="line" smooth="yes"/>
      <point x="233.0" y="352.0" type="line" smooth="yes"/>
      <point x="242.0" y="352.0" type="line" smooth="yes"/>
      <point x="237.0" y="245.0" type="line" smooth="yes"/>
      <point x="153.0" y="76.0" type="line" smooth="yes"/>
    </contour>
    <contour>
      <point x="430.0" y="724.0" type="line" smooth="yes"/>
      <point x="425.0" y="617.0" type="line" smooth="yes"/>
      <point x="341.0" y="448.0" type="line" smooth="yes"/>
      <point x="332.0" y="448.0" type="line" smooth="yes"/>
      <point x="338.0" y="555.0" type="line" smooth="yes"/>
      <point x="421.0" y="724.0" type="line" smooth="yes"/>
    </contour>
    <contour>
      <point x="178.0" y="724.0" type="line" smooth="yes"/>
      <point x="187.0" y="724.0" type="line" smooth="yes"/>
      <point x="253.0" y="555.0" type="line" smooth="yes"/>
      <point x="247.0" y="448.0" type="line" smooth="yes"/>
      <point x="238.0" y="448.0" type="line" smooth="yes"/>
      <point x="172.0" y="617.0" type="line" smooth="yes"/>
    </contour>
  </outline>
</glyph>
<glyph name="Z" format="2">
  <advance width="583"/>
  <unicode hex="005A"/>
  <outline>
    <contour>
      <point x="474.934570312" y="28.0" type="line" smooth="yes"/>
      <point x="447.934570312" y="0.0" type="line" smooth="yes"/>
      <point x="322.934570312" y="0.0" type="line" smooth="yes"/>
      <point x="325.934570312" y="56.0" type="line" smooth="yes"/>
      <point x="450.934570312" y="56.0" type="line" smooth="yes"/>
    </contour>
    <contour>
      <point x="513.92578125" y="772.0" type="line" smooth="yes"/>
      <point x="486.92578125" y="744.0" type="line" smooth="yes"/>
      <point x="361.92578125" y="744.0" type="line" smooth="yes"/>
      <point x="364.92578125" y="800.0" type="line" smooth="yes"/>
      <point x="489.92578125" y="800.0" type="line" smooth="yes"/>
    </contour>
    <contour>
      <point x="144.0" y="76.0" type="line" smooth="yes"/>
      <point x="150.0" y="183.0" type="line" smooth="yes"/>
      <point x="233.0" y="352.0" type="line" smooth="yes"/>
      <point x="242.0" y="352.0" type="line" smooth="yes"/>
      <point x="237.0" y="245.0" type="line" smooth="yes"/>
      <point x="153.0" y="76.0" type="line" smooth="yes"/>
    </contour>
    <contour>
      <point x="430.0" y="724.0" type="line" smooth="yes"/>
      <point x="425.0" y="617.0" type="line" smooth="yes"/>
      <point x="341.0" y="448.0" type="line" smooth="yes"/>
      <point x="332.0" y="448.0" type="line" smooth="yes"/>
      <point x="338.0" y="555.0" type="line" smooth="yes"/>
      <point x="421.0" y="724.0" type="line" smooth="yes"/>
    </contour>
    <contour>
      <point x="111.0" y="28.0" type="line" smooth="yes"/>
      <point x="138.0" y="56.0" type="line" smooth="yes"/>
      <point x="263.0" y="56.0" type="line" smooth="yes"/>
      <point x="260.0" y="0.0" type="line" smooth="yes"/>
      <point x="135.0" y="0.0" type="line" smooth="yes"/>
    </contour>
    <contour>
      <point x="149.991210938" y="772.0" type="line" smooth="yes"/>
      <point x="176.991210938" y="800.0" type="line" smooth="yes"/>
      <point x="301.991210938" y="800.0" type="line" smooth="yes"/>
      <point x="298.991210938" y="744.0" type="line" smooth="yes"/>
      <point x="173.991210938" y="744.0" type="line" smooth="yes"/>
    </contour>
  </outline>
</glyph>
<glyph name="bracketleft" format="2">
  <advance width="583"/>
  <unicode hex="005B"/>
  <outline>
    <contour>
      <point x="464.0" y="28.0" type="line" smooth="yes"/>
      <point x="435.0" y="0.0" type="line" smooth="yes"/>
      <point x="301.0" y="0.0" type="line" smooth="yes"/>
      <point x="304.0" y="56.0" type="line" smooth="yes"/>
      <point x="438.0" y="56.0" type="line" smooth="yes"/>
    </contour>
    <contour>
      <point x="503.0" y="772.0" type="line" smooth="yes"/>
      <point x="474.0" y="744.0" type="line" smooth="yes"/>
      <point x="340.0" y="744.0" type="line" smooth="yes"/>
      <point x="343.0" y="800.0" type="line" smooth="yes"/>
      <point x="477.0" y="800.0" type="line" smooth="yes"/>
    </contour>
    <contour>
      <point x="268.0" y="76.0" type="line" smooth="yes"/>
      <point x="283.0" y="358.0" type="line" smooth="yes"/>
      <point x="312.0" y="386.0" type="line" smooth="yes"/>
      <point x="339.0" y="358.0" type="line" smooth="yes"/>
      <point x="324.0" y="76.0" type="line" smooth="yes"/>
    </contour>
    <contour>
      <point x="302.0" y="724.0" type="line" smooth="yes"/>
      <point x="358.0" y="724.0" type="line" smooth="yes"/>
      <point x="343.0" y="442.0" type="line" smooth="yes"/>
      <point x="314.0" y="414.0" type="line" smooth="yes"/>
      <point x="287.0" y="442.0" type="line" smooth="yes"/>
    </contour>
  </outline>
</glyph>
<glyph name="backslash" format="2">
  <advance width="583"/>
  <unicode hex="005C"/>
  <outline>
    <contour>
      <point x="425.0" y="76.0" type="line" smooth="yes"/>
      <point x="415.0" y="76.0" type="line" smooth="yes"/>
      <point x="326.0" y="245.0" type="line" smooth="yes"/>
      <point x="321.0" y="352.0" type="line" smooth="yes"/>
      <point x="331.0" y="352.0" type="line" smooth="yes"/>
      <point x="419.0" y="183.0" type="line" smooth="yes"/>
    </contour>
    <contour>
      <point x="116.0" y="724.0" type="line" smooth="yes"/>
      <point x="126.0" y="724.0" type="line" smooth="yes"/>
      <point x="215.0" y="555.0" type="line" smooth="yes"/>
      <point x="221.0" y="448.0" type="line" smooth="yes"/>
      <point x="211.0" y="448.0" type="line" smooth="yes"/>
      <point x="122.0" y="617.0" type="line" smooth="yes"/>
    </contour>
  </outline>
</glyph>
<glyph name="asciicircum" format="2">
  <advance width="583"/>
  <unicode hex="005E"/>
  <outline>
    <contour>
      <point x="467.0" y="724.0" type="line" smooth="yes"/>
      <point x="461.0" y="617.0" type="line" smooth="yes"/>
      <point x="372.0" y="448.0" type="line" smooth="yes"/>
      <point x="362.0" y="448.0" type="line" smooth="yes"/>
      <point x="368.0" y="555.0" type="line" smooth="yes"/>
      <point x="457.0" y="724.0" type="line" smooth="yes"/>
    </contour>
    <contour>
      <point x="499.0" y="414.0" type="line" smooth="yes"/>
      <point x="472.0" y="442.0" type="line" smooth="yes"/>
      <point x="487.0" y="730.0" type="line" smooth="yes"/>
      <point x="517.0" y="758.0" type="line" smooth="yes"/>
      <point x="543.0" y="730.0" type="line" smooth="yes"/>
      <point x="528.0" y="442.0" type="line" smooth="yes"/>
    </contour>
  </outline>
</glyph>
<glyph name="underscore" format="2">
  <advance width="583"/>
  <unicode hex="005F"/>
  <outline>
    <contour>
      <point x="474.934570312" y="28.0" type="line" smooth="yes"/>
      <point x="447.934570312" y="0.0" type="line" smooth="yes"/>
      <point x="322.934570312" y="0.0" type="line" smooth="yes"/>
      <point x="325.934570312" y="56.0" type="line" smooth="yes"/>
      <point x="450.934570312" y="56.0" type="line" smooth="yes"/>
    </contour>
    <contour>
      <point x="111.0" y="28.0" type="line" smooth="yes"/>
      <point x="138.0" y="56.0" type="line" smooth="yes"/>
      <point x="263.0" y="56.0" type="line" smooth="yes"/>
      <point x="260.0" y="0.0" type="line" smooth="yes"/>
      <point x="135.0" y="0.0" type="line" smooth="yes"/>
    </contour>
  </outline>
</glyph>
<glyph name="grave" format="2">
  <advance width="583"/>
  <unicode hex="0060"/>
  <outline>
    <contour>
      <point x="192.0" y="724.0" type="line" smooth="yes"/>
      <point x="202.0" y="724.0" type="line" smooth="yes"/>
      <point x="273.0" y="555.0" type="line" smooth="yes"/>
      <point x="267.0" y="448.0" type="line" smooth="yes"/>
      <point x="257.0" y="448.0" type="line" smooth="yes"/>
      <point x="186.0" y="617.0" type="line" smooth="yes"/>
    </contour>
  </outline>
</glyph>
<glyph name="e" format="2">
  <advance width="583"/>
  <unicode hex="0065"/>
  <outline>
    <contour>
      <point x="474.934570312" y="28.0" type="line" smooth="yes"/>
      <point x="447.934570312" y="0.0" type="line" smooth="yes"/>
      <point x="322.934570312" y="0.0" type="line" smooth="yes"/>
      <point x="325.934570312" y="56.0" type="line" smooth="yes"/>
      <point x="450.934570312" y="56.0" type="line" smooth="yes"/>
    </contour>
    <contour>
      <point x="144.0" y="76.0" type="line" smooth="yes"/>
      <point x="150.0" y="183.0" type="line" smooth="yes"/>
      <point x="233.0" y="352.0" type="line" smooth="yes"/>
      <point x="242.0" y="352.0" type="line" smooth="yes"/>
      <point x="237.0" y="245.0" type="line" smooth="yes"/>
      <point x="153.0" y="76.0" type="line" smooth="yes"/>
    </contour>
    <contour>
      <point x="130.0" y="400.0" type="line" smooth="yes"/>
      <point x="158.0" y="428.0" type="line" smooth="yes"/>
      <point x="253.0" y="428.0" type="line" smooth="yes"/>
      <point x="277.0" y="400.0" type="line" smooth="yes"/>
      <point x="250.0" y="372.0" type="line" smooth="yes"/>
      <point x="155.0" y="372.0" type="line" smooth="yes"/>
    </contour>
    <contour>
      <point x="99.0" y="42.0" type="line" smooth="yes"/>
      <point x="75.0" y="70.0" type="line" smooth="yes"/>
      <point x="90.0" y="358.0" type="line" smooth="yes"/>
      <point x="117.0" y="386.0" type="line" smooth="yes"/>
      <point x="142.0" y="358.0" type="line" smooth="yes"/>
      <point x="127.0" y="70.0" type="line" smooth="yes"/>
    </contour>
    <contour>
      <point x="111.0" y="28.0" type="line" smooth="yes"/>
      <point x="138.0" y="56.0" type="line" smooth="yes"/>
      <point x="263.0" y="56.0" type="line" smooth="yes"/>
      <point x="260.0" y="0.0" type="line" smooth="yes"/>
      <point x="135.0" y="0.0" type="line" smooth="yes"/>
    </contour>
  </outline>
</glyph>
<glyph name="f" format="2">
  <advance width="583"/>
  <unicode hex="0066"/>
  <outline>
    <contour>
      <point x="513.92578125" y="772.0" type="line" smooth="yes"/>
      <point x="486.92578125" y="744.0" type="line" smooth="yes"/>
      <point x="361.92578125" y="744.0" type="line" smooth="yes"/>
      <point x="364.92578125" y="800.0" type="line" smooth="yes"/>
      <point x="489.92578125" y="800.0" type="line" smooth="yes"/>
    </contour>
    <contour>
      <point x="316.0" y="400.0" type="line" smooth="yes"/>
      <point x="344.0" y="428.0" type="line" smooth="yes"/>
      <point x="439.0" y="428.0" type="line" smooth="yes"/>
      <point x="463.0" y="400.0" type="line" smooth="yes"/>
      <point x="436.0" y="372.0" type="line" smooth="yes"/>
      <point x="341.0" y="372.0" type="line" smooth="yes"/>
    </contour>
    <contour>
      <point x="244.0" y="76.0" type="line" smooth="yes"/>
      <point x="259.0" y="358.0" type="line" smooth="yes"/>
      <point x="287.0" y="386.0" type="line" smooth="yes"/>
      <point x="311.0" y="358.0" type="line" smooth="yes"/>
      <point x="296.0" y="76.0" type="line" smooth="yes"/>
    </contour>
    <contour>
      <point x="278.0" y="724.0" type="line" smooth="yes"/>
      <point x="330.0" y="724.0" type="line" smooth="yes"/>
      <point x="315.0" y="442.0" type="line" smooth="yes"/>
      <point x="288.0" y="414.0" type="line" smooth="yes"/>
      <point x="263.0" y="442.0" type="line" smooth="yes"/>
    </contour>
    <contour>
      <point x="130.0" y="400.0" type="line" smooth="yes"/>
      <point x="158.0" y="428.0" type="line" smooth="yes"/>
      <point x="253.0" y="428.0" type="line" smooth="yes"/>
      <point x="277.0" y="400.0" type="line" smooth="yes"/>
      <point x="250.0" y="372.0" type="line" smooth="yes"/>
      <point x="155.0" y="372.0" type="line" smooth="yes"/>
    </contour>
  </outline>
</glyph>
<glyph name="g" format="2">
  <advance width="583"/>
  <unicode hex="0067"/>
  <outline>
    <contour>
      <point x="464.0" y="28.0" type="line" smooth="yes"/>
      <point x="435.0" y="0.0" type="line" smooth="yes"/>
      <point x="301.0" y="0.0" type="line" smooth="yes"/>
      <point x="304.0" y="56.0" type="line" smooth="yes"/>
      <point x="438.0" y="56.0" type="line" smooth="yes"/>
    </contour>
    <contour>
      <point x="503.0" y="772.0" type="line" smooth="yes"/>
      <point x="474.0" y="744.0" type="line" smooth="yes"/>
      <point x="340.0" y="744.0" type="line" smooth="yes"/>
      <point x="343.0" y="800.0" type="line" smooth="yes"/>
      <point x="477.0" y="800.0" type="line" smooth="yes"/>
    </contour>
    <contour>
      <point x="327.0" y="400.0" type="line" smooth="yes"/>
      <point x="356.0" y="428.0" type="line" smooth="yes"/>
      <point x="458.0" y="428.0" type="line" smooth="yes"/>
      <point x="485.0" y="400.0" type="line" smooth="yes"/>
      <point x="455.0" y="372.0" type="line" smooth="yes"/>
      <point x="353.0" y="372.0" type="line" smooth="yes"/>
    </contour>
    <contour>
      <point x="192.0" y="724.0" type="line" smooth="yes"/>
      <point x="202.0" y="724.0" type="line" smooth="yes"/>
      <point x="273.0" y="555.0" type="line" smooth="yes"/>
      <point x="267.0" y="448.0" type="line" smooth="yes"/>
      <point x="257.0" y="448.0" type="line" smooth="yes"/>
      <point x="186.0" y="617.0" type="line" smooth="yes"/>
    </contour>
    <contour>
      <point x="121.0" y="28.0" type="line" smooth="yes"/>
      <point x="151.0" y="56.0" type="line" smooth="yes"/>
      <point x="285.0" y="56.0" type="line" smooth="yes"/>
      <point x="282.0" y="0.0" type="line" smooth="yes"/>
      <point x="148.0" y="0.0" type="line" smooth="yes"/>
    </contour>
    <contour>
      <point x="479.0" y="42.0" type="line" smooth="yes"/>
      <point x="453.0" y="70.0" type="line" smooth="yes"/>
      <point x="468.0" y="358.0" type="line" smooth="yes"/>
      <point x="497.0" y="386.0" type="line" smooth="yes"/>
      <point x="524.0" y="358.0" type="line" smooth="yes"/>
      <point x="509.0" y="70.0" type="line" smooth="yes"/>
    </contour>
    <contour>
      <point x="499.0" y="414.0" type="line" smooth="yes"/>
      <point x="472.0" y="442.0" type="line" smooth="yes"/>
      <point x="487.0" y="730.0" type="line" smooth="yes"/>
      <point x="517.0" y="758.0" type="line" smooth="yes"/>
      <point x="543.0" y="730.0" type="line" smooth="yes"/>
      <point x="528.0" y="442.0" type="line" smooth="yes"/>
    </contour>
    <contour>
      <point x="160.0" y="772.0" type="line" smooth="yes"/>
      <point x="190.0" y="800.0" type="line" smooth="yes"/>
      <point x="324.0" y="800.0" type="line" smooth="yes"/>
      <point x="321.0" y="744.0" type="line" smooth="yes"/>
      <point x="187.0" y="744.0" type="line" smooth="yes"/>
    </contour>
  </outline>
</glyph>
<glyph name="i" format="2">
  <advance width="583"/>
  <unicode hex="0069"/>
  <outline>
    <contour>
      <point x="260.0" y="76.0" type="line" smooth="yes"/>
      <point x="245.0" y="358.0" type="line" smooth="yes"/>
      <point x="272.0" y="386.0" type="line" smooth="yes"/>
      <point x="301.0" y="358.0" type="line" smooth="yes"/>
      <point x="316.0" y="76.0" type="line" smooth="yes"/>
    </contour>
  </outline>
</glyph>
<glyph name="l" format="2">
  <advance width="583"/>
  <unicode hex="006C"/>
  <outline>
    <contour>
      <point x="84.0" y="414.0" type="line" smooth="yes"/>
      <point x="55.0" y="442.0" type="line" smooth="yes"/>
      <point x="40.0" y="730.0" type="line" smooth="yes"/>
      <point x="66.0" y="758.0" type="line" smooth="yes"/>
      <point x="96.0" y="730.0" type="line" smooth="yes"/>
      <point x="111.0" y="442.0" type="line" smooth="yes"/>
    </contour>
    <contour>
      <point x="104.0" y="42.0" type="line" smooth="yes"/>
      <point x="74.0" y="70.0" type="line" smooth="yes"/>
      <point x="59.0" y="358.0" type="line" smooth="yes"/>
      <point x="86.0" y="386.0" type="line" smooth="yes"/>
      <point x="115.0" y="358.0" type="line" smooth="yes"/>
      <point x="130.0" y="70.0" type="line" smooth="yes"/>
    </contour>
    <contour>
      <point x="119.0" y="28.0" type="line" smooth="yes"/>
      <point x="145.0" y="56.0" type="line" smooth="yes"/>
      <point x="279.0" y="56.0" type="line" smooth="yes"/>
      <point x="282.0" y="0.0" type="line" smooth="yes"/>
      <point x="148.0" y="0.0" type="line" smooth="yes"/>
    </contour>
  </outline>
</glyph>
<glyph name="m" format="2">
  <advance width="583"/>
  <unicode hex="006D"/>
  <outline>
    <contour>
      <point x="285.0" y="400.0" type="line" smooth="yes"/>
      <point x="312.0" y="428.0" type="line" smooth="yes"/>
      <point x="414.0" y="428.0" type="line" smooth="yes"/>
      <point x="443.0" y="400.0" type="line" smooth="yes"/>
      <point x="417.0" y="372.0" type="line" smooth="yes"/>
      <point x="315.0" y="372.0" type="line" smooth="yes"/>
    </contour>
    <contour>
      <point x="260.0" y="76.0" type="line" smooth="yes"/>
      <point x="245.0" y="358.0" type="line" smooth="yes"/>
      <point x="272.0" y="386.0" type="line" smooth="yes"/>
      <point x="301.0" y="358.0" type="line" smooth="yes"/>
      <point x="316.0" y="76.0" type="line" smooth="yes"/>
    </contour>
    <contour>
      <point x="99.0" y="400.0" type="line" smooth="yes"/>
      <point x="126.0" y="428.0" type="line" smooth="yes"/>
      <point x="228.0" y="428.0" type="line" smooth="yes"/>
      <point x="257.0" y="400.0" type="line" smooth="yes"/>
      <point x="231.0" y="372.0" type="line" smooth="yes"/>
      <point x="129.0" y="372.0" type="line" smooth="yes"/>
    </contour>
    <contour>
      <point x="104.0" y="42.0" type="line" smooth="yes"/>
      <point x="74.0" y="70.0" type="line" smooth="yes"/>
      <point x="59.0" y="358.0" type="line" smooth="yes"/>
      <point x="86.0" y="386.0" type="line" smooth="yes"/>
      <point x="115.0" y="358.0" type="line" smooth="yes"/>
      <point x="130.0" y="70.0" type="line" smooth="yes"/>
    </contour>
    <contour>
      <point x="475.0" y="42.0" type="line" smooth="yes"/>
      <point x="445.0" y="70.0" type="line" smooth="yes"/>
      <point x="430.0" y="358.0" type="line" smooth="yes"/>
      <point x="457.0" y="386.0" type="line" smooth="yes"/>
      <point x="486.0" y="358.0" type="line" smooth="yes"/>
      <point x="501.0" y="70.0" type="line" smooth="yes"/>
    </contour>
  </outline>
</glyph>
<glyph name="s" format="2">
  <advance width="583"/>
  <unicode hex="0073"/>
  <outline>
    <contour>
      <point x="464.0" y="28.0" type="line" smooth="yes"/>
      <point x="435.0" y="0.0" type="line" smooth="yes"/>
      <point x="301.0" y="0.0" type="line" smooth="yes"/>
      <point x="304.0" y="56.0" type="line" smooth="yes"/>
      <point x="438.0" y="56.0" type="line" smooth="yes"/>
    </contour>
    <contour>
      <point x="327.0" y="400.0" type="line" smooth="yes"/>
      <point x="356.0" y="428.0" type="line" smooth="yes"/>
      <point x="458.0" y="428.0" type="line" smooth="yes"/>
      <point x="485.0" y="400.0" type="line" smooth="yes"/>
      <point x="455.0" y="372.0" type="line" smooth="yes"/>
      <point x="353.0" y="372.0" type="line" smooth="yes"/>
    </contour>
    <contour>
      <point x="433.0" y="76.0" type="line" smooth="yes"/>
      <point x="423.0" y="76.0" type="line" smooth="yes"/>
      <point x="352.0" y="245.0" type="line" smooth="yes"/>
      <point x="357.0" y="352.0" type="line" smooth="yes"/>
      <point x="367.0" y="352.0" type="line" smooth="yes"/>
      <point x="439.0" y="183.0" type="line" smooth="yes"/>
    </contour>
  </outline>
</glyph>
<glyph name="u" format="2">
  <advance width="583"/>
  <unicode hex="0075"/>
  <outline>
    <contour>
      <point x="464.0" y="28.0" type="line" smooth="yes"/>
      <point x="435.0" y="0.0" type="line" smooth="yes"/>
      <point x="301.0" y="0.0" type="line" smooth="yes"/>
      <point x="304.0" y="56.0" type="line" smooth="yes"/>
      <point x="438.0" y="56.0" type="line" smooth="yes"/>
    </contour>
    <contour>
      <point x="108.0" y="42.0" type="line" smooth="yes"/>
      <point x="82.0" y="70.0" type="line" smooth="yes"/>
      <point x="97.0" y="358.0" type="line" smooth="yes"/>
      <point x="126.0" y="386.0" type="line" smooth="yes"/>
      <point x="153.0" y="358.0" type="line" smooth="yes"/>
      <point x="138.0" y="70.0" type="line" smooth="yes"/>
    </contour>
    <contour>
      <point x="121.0" y="28.0" type="line" smooth="yes"/>
      <point x="151.0" y="56.0" type="line" smooth="yes"/>
      <point x="285.0" y="56.0" type="line" smooth="yes"/>
      <point x="282.0" y="0.0" type="line" smooth="yes"/>
      <point x="148.0" y="0.0" type="line" smooth="yes"/>
    </contour>
    <contour>
      <point x="479.0" y="42.0" type="line" smooth="yes"/>
      <point x="453.0" y="70.0" type="line" smooth="yes"/>
      <point x="468.0" y="358.0" type="line" smooth="yes"/>
      <point x="497.0" y="386.0" type="line" smooth="yes"/>
      <point x="524.0" y="358.0" type="line" smooth="yes"/>
      <point x="509.0" y="70.0" type="line" smooth="yes"/>
    </contour>
  </outline>
</glyph>
<glyph name="v" format="2">
  <advance width="583"/>
  <unicode hex="0076"/>
  <outline>
    <contour>
      <point x="150.0" y="76.0" type="line" smooth="yes"/>
      <point x="144.0" y="183.0" type="line" smooth="yes"/>
      <point x="216.0" y="352.0" type="line" smooth="yes"/>
      <point x="226.0" y="352.0" type="line" smooth="yes"/>
      <point x="231.0" y="245.0" type="line" smooth="yes"/>
      <point x="160.0" y="76.0" type="line" smooth="yes"/>
    </contour>
    <contour>
      <point x="104.0" y="42.0" type="line" smooth="yes"/>
      <point x="74.0" y="70.0" type="line" smooth="yes"/>
      <point x="59.0" y="358.0" type="line" smooth="yes"/>
      <point x="86.0" y="386.0" type="line" smooth="yes"/>
      <point x="115.0" y="358.0" type="line" smooth="yes"/>
      <point x="130.0" y="70.0" type="line" smooth="yes"/>
    </contour>
  </outline>
</glyph>
<glyph name="w" format="2">
  <advance width="583"/>
  <unicode hex="0077"/>
  <outline>
    <contour>
      <point x="425.0" y="76.0" type="line" smooth="yes"/>
      <point x="415.0" y="76.0" type="line" smooth="yes"/>
      <point x="326.0" y="245.0" type="line" smooth="yes"/>
      <point x="321.0" y="352.0" type="line" smooth="yes"/>
      <point x="331.0" y="352.0" type="line" smooth="yes"/>
      <point x="419.0" y="183.0" type="line" smooth="yes"/>
    </contour>
    <contour>
      <point x="150.0" y="76.0" type="line" smooth="yes"/>
      <point x="144.0" y="183.0" type="line" smooth="yes"/>
      <point x="216.0" y="352.0" type="line" smooth="yes"/>
      <point x="226.0" y="352.0" type="line" smooth="yes"/>
      <point x="231.0" y="245.0" type="line" smooth="yes"/>
      <point x="160.0" y="76.0" type="line" smooth="yes"/>
    </contour>
    <contour>
      <point x="104.0" y="42.0" type="line" smooth="yes"/>
      <point x="74.0" y="70.0" type="line" smooth="yes"/>
      <point x="59.0" y="358.0" type="line" smooth="yes"/>
      <point x="86.0" y="386.0" type="line" smooth="yes"/>
      <point x="115.0" y="358.0" type="line" smooth="yes"/>
      <point x="130.0" y="70.0" type="line" smooth="yes"/>
    </contour>
    <contour>
      <point x="475.0" y="42.0" type="line" smooth="yes"/>
      <point x="445.0" y="70.0" type="line" smooth="yes"/>
      <point x="430.0" y="358.0" type="line" smooth="yes"/>
      <point x="457.0" y="386.0" type="line" smooth="yes"/>
      <point x="486.0" y="358.0" type="line" smooth="yes"/>
      <point x="501.0" y="70.0" type="line" smooth="yes"/>
    </contour>
  </outline>
</glyph>
<glyph name="z" format="2">
  <advance width="583"/>
  <unicode hex="007A"/>
  <outline>
    <contour>
      <point x="150.0" y="76.0" type="line" smooth="yes"/>
      <point x="144.0" y="183.0" type="line" smooth="yes"/>
      <point x="216.0" y="352.0" type="line" smooth="yes"/>
      <point x="226.0" y="352.0" type="line" smooth="yes"/>
      <point x="231.0" y="245.0" type="line" smooth="yes"/>
      <point x="160.0" y="76.0" type="line" smooth="yes"/>
    </contour>
    <contour>
      <point x="99.0" y="400.0" type="line" smooth="yes"/>
      <point x="126.0" y="428.0" type="line" smooth="yes"/>
      <point x="228.0" y="428.0" type="line" smooth="yes"/>
      <point x="257.0" y="400.0" type="line" smooth="yes"/>
      <point x="231.0" y="372.0" type="line" smooth="yes"/>
      <point x="129.0" y="372.0" type="line" smooth="yes"/>
    </contour>
    <contour>
      <point x="119.0" y="28.0" type="line" smooth="yes"/>
      <point x="145.0" y="56.0" type="line" smooth="yes"/>
      <point x="279.0" y="56.0" type="line" smooth="yes"/>
      <point x="282.0" y="0.0" type="line" smooth="yes"/>
      <point x="148.0" y="0.0" type="line" smooth="yes"/>
    </contour>
  </outline>
</glyph>
<glyph name="braceleft" format="2">
  <advance width="583"/>
  <unicode hex="007B"/>
  <outline>
    <contour>
      <point x="464.0" y="28.0" type="line" smooth="yes"/>
      <point x="435.0" y="0.0" type="line" smooth="yes"/>
      <point x="301.0" y="0.0" type="line" smooth="yes"/>
      <point x="304.0" y="56.0" type="line" smooth="yes"/>
      <point x="438.0" y="56.0" type="line" smooth="yes"/>
    </contour>
    <contour>
      <point x="503.0" y="772.0" type="line" smooth="yes"/>
      <point x="474.0" y="744.0" type="line" smooth="yes"/>
      <point x="340.0" y="744.0" type="line" smooth="yes"/>
      <point x="343.0" y="800.0" type="line" smooth="yes"/>
      <point x="477.0" y="800.0" type="line" smooth="yes"/>
    </contour>
    <contour>
      <point x="158.0" y="76.0" type="line" smooth="yes"/>
      <point x="164.0" y="183.0" type="line" smooth="yes"/>
      <point x="252.0" y="352.0" type="line" smooth="yes"/>
      <point x="262.0" y="352.0" type="line" smooth="yes"/>
      <point x="257.0" y="245.0" type="line" smooth="yes"/>
      <point x="168.0" y="76.0" type="line" smooth="yes"/>
    </contour>
    <contour>
      <point x="192.0" y="724.0" type="line" smooth="yes"/>
      <point x="202.0" y="724.0" type="line" smooth="yes"/>
      <point x="273.0" y="555.0" type="line" smooth="yes"/>
      <point x="267.0" y="448.0" type="line" smooth="yes"/>
      <point x="257.0" y="448.0" type="line" smooth="yes"/>
      <point x="186.0" y="617.0" type="line" smooth="yes"/>
    </contour>
    <contour>
      <point x="141.0" y="400.0" type="line" smooth="yes"/>
      <point x="170.0" y="428.0" type="line" smooth="yes"/>
      <point x="272.0" y="428.0" type="line" smooth="yes"/>
      <point x="299.0" y="400.0" type="line" smooth="yes"/>
      <point x="269.0" y="372.0" type="line" smooth="yes"/>
      <point x="167.0" y="372.0" type="line" smooth="yes"/>
    </contour>
    <contour>
      <point x="121.0" y="28.0" type="line" smooth="yes"/>
      <point x="151.0" y="56.0" type="line" smooth="yes"/>
      <point x="285.0" y="56.0" type="line" smooth="yes"/>
      <point x="282.0" y="0.0" type="line" smooth="yes"/>
      <point x="148.0" y="0.0" type="line" smooth="yes"/>
    </contour>
    <contour>
      <point x="160.0" y="772.0" type="line" smooth="yes"/>
      <point x="190.0" y="800.0" type="line" smooth="yes"/>
      <point x="324.0" y="800.0" type="line" smooth="yes"/>
      <point x="321.0" y="744.0" type="line" smooth="yes"/>
      <point x="187.0" y="744.0" type="line" smooth="yes"/>
    </contour>
  </outline>
</glyph>
<glyph name="bar" format="2">
  <advance width="583"/>
  <unicode hex="007C"/>
  <outline>
    <contour>
      <point x="260.0" y="76.0" type="line" smooth="yes"/>
      <point x="245.0" y="358.0" type="line" smooth="yes"/>
      <point x="272.0" y="386.0" type="line" smooth="yes"/>
      <point x="301.0" y="358.0" type="line" smooth="yes"/>
      <point x="316.0" y="76.0" type="line" smooth="yes"/>
    </contour>
    <contour>
      <point x="226.0" y="724.0" type="line" smooth="yes"/>
      <point x="282.0" y="724.0" type="line" smooth="yes"/>
      <point x="297.0" y="442.0" type="line" smooth="yes"/>
      <point x="270.0" y="414.0" type="line" smooth="yes"/>
      <point x="241.0" y="442.0" type="line" smooth="yes"/>
    </contour>
  </outline>
</glyph>
<glyph name="plusminus" format="2">
  <advance width="583"/>
  <unicode hex="00B1"/>
  <outline>
    <contour>
      <point x="462.0" y="28.0" type="line" smooth="yes"/>
      <point x="435.0" y="0.0" type="line" smooth="yes"/>
      <point x="301.0" y="0.0" type="line" smooth="yes"/>
      <point x="298.0" y="56.0" type="line" smooth="yes"/>
      <point x="432.0" y="56.0" type="line" smooth="yes"/>
    </contour>
    <contour>
      <point x="285.0" y="400.0" type="line" smooth="yes"/>
      <point x="312.0" y="428.0" type="line" smooth="yes"/>
      <point x="414.0" y="428.0" type="line" smooth="yes"/>
      <point x="443.0" y="400.0" type="line" smooth="yes"/>
      <point x="417.0" y="372.0" type="line" smooth="yes"/>
      <point x="315.0" y="372.0" type="line" smooth="yes"/>
    </contour>
    <contour>
      <point x="260.0" y="76.0" type="line" smooth="yes"/>
      <point x="245.0" y="358.0" type="line" smooth="yes"/>
      <point x="272.0" y="386.0" type="line" smooth="yes"/>
      <point x="301.0" y="358.0" type="line" smooth="yes"/>
      <point x="316.0" y="76.0" type="line" smooth="yes"/>
    </contour>
    <contour>
      <point x="226.0" y="724.0" type="line" smooth="yes"/>
      <point x="282.0" y="724.0" type="line" smooth="yes"/>
      <point x="297.0" y="442.0" type="line" smooth="yes"/>
      <point x="270.0" y="414.0" type="line" smooth="yes"/>
      <point x="241.0" y="442.0" type="line" smooth="yes"/>
    </contour>
    <contour>
      <point x="99.0" y="400.0" type="line" smooth="yes"/>
      <point x="126.0" y="428.0" type="line" smooth="yes"/>
      <point x="228.0" y="428.0" type="line" smooth="yes"/>
      <point x="257.0" y="400.0" type="line" smooth="yes"/>
      <point x="231.0" y="372.0" type="line" smooth="yes"/>
      <point x="129.0" y="372.0" type="line" smooth="yes"/>
    </contour>
    <contour>
      <point x="119.0" y="28.0" type="line" smooth="yes"/>
      <point x="145.0" y="56.0" type="line" smooth="yes"/>
      <point x="279.0" y="56.0" type="line" smooth="yes"/>
      <point x="282.0" y="0.0" type="line" smooth="yes"/>
      <point x="148.0" y="0.0" type="line" smooth="yes"/>
    </contour>
  </outline>
</glyph>
<glyph name="periodcentered" format="2">
  <advance width="583"/>
  <unicode hex="00B7"/>
  <outline>
    <contour>
      <point x="285.0" y="400.0" type="line" smooth="yes"/>
      <point x="312.0" y="428.0" type="line" smooth="yes"/>
      <point x="414.0" y="428.0" type="line" smooth="yes"/>
      <point x="443.0" y="400.0" type="line" smooth="yes"/>
      <point x="417.0" y="372.0" type="line" smooth="yes"/>
      <point x="315.0" y="372.0" type="line" smooth="yes"/>
    </contour>
  </outline>
</glyph>
<glyph name="quoteright" format="2">
  <advance width="583"/>
  <unicode hex="2019"/>
  <outline>
    <contour>
      <point x="391.0" y="724.0" type="line" smooth="yes"/>
      <point x="397.0" y="617.0" type="line" smooth="yes"/>
      <point x="326.0" y="448.0" type="line" smooth="yes"/>
      <point x="316.0" y="448.0" type="line" smooth="yes"/>
      <point x="310.0" y="555.0" type="line" smooth="yes"/>
      <point x="381.0" y="724.0" type="line" smooth="yes"/>
    </contour>
  </outline>
</glyph>
<glyph name="quotedblright" format="2">
  <advance width="583"/>
  <unicode hex="201D"/>
  <outline>
    <contour>
      <point x="391.0" y="724.0" type="line" smooth="yes"/>
      <point x="397.0" y="617.0" type="line" smooth="yes"/>
      <point x="326.0" y="448.0" type="line" smooth="yes"/>
      <point x="316.0" y="448.0" type="line" smooth="yes"/>
      <point x="310.0" y="555.0" type="line" smooth="yes"/>
      <point x="381.0" y="724.0" type="line" smooth="yes"/>
    </contour>
    <contour>
      <point x="84.0" y="414.0" type="line" smooth="yes"/>
      <point x="55.0" y="442.0" type="line" smooth="yes"/>
      <point x="40.0" y="730.0" type="line" smooth="yes"/>
      <point x="66.0" y="758.0" type="line" smooth="yes"/>
      <point x="96.0" y="730.0" type="line" smooth="yes"/>
      <point x="111.0" y="442.0" type="line" smooth="yes"/>
    </contour>
  </outline>
</glyph>
<glyph name="ellipsis" format="2">
  <advance width="583"/>
  <unicode hex="2026"/>
  <outline>
    <contour>
      <point x="260.0" y="76.0" type="line" smooth="yes"/>
      <point x="245.0" y="358.0" type="line" smooth="yes"/>
      <point x="272.0" y="386.0" type="line" smooth="yes"/>
      <point x="301.0" y="358.0" type="line" smooth="yes"/>
      <point x="316.0" y="76.0" type="line" smooth="yes"/>
    </contour>
    <contour>
      <point x="104.0" y="42.0" type="line" smooth="yes"/>
      <point x="74.0" y="70.0" type="line" smooth="yes"/>
      <point x="59.0" y="358.0" type="line" smooth="yes"/>
      <point x="86.0" y="386.0" type="line" smooth="yes"/>
      <point x="115.0" y="358.0" type="line" smooth="yes"/>
      <point x="130.0" y="70.0" type="line" smooth="yes"/>
    </contour>
    <contour>
      <point x="475.0" y="42.0" type="line" smooth="yes"/>
      <point x="445.0" y="70.0" type="line" smooth="yes"/>
      <point x="430.0" y="358.0" type="line" smooth="yes"/>
      <point x="457.0" y="386.0" type="line" smooth="yes"/>
      <point x="486.0" y="358.0" type="line" smooth="yes"/>
      <point x="501.0" y="70.0" type="line" smooth="yes"/>
    </contour>
  </outline>
</glyph>
<glyph name="unie000" format="2">
  <advance width="583"/>
  <unicode hex="E000"/>
  <outline>
    <contour>
      <point x="462.0" y="28.0" type="line" smooth="yes"/>
      <point x="435.0" y="0.0" type="line" smooth="yes"/>
      <point x="301.0" y="0.0" type="line" smooth="yes"/>
      <point x="298.0" y="56.0" type="line" smooth="yes"/>
      <point x="432.0" y="56.0" type="line" smooth="yes"/>
    </contour>
    <contour>
      <point x="423.0" y="772.0" type="line" smooth="yes"/>
      <point x="396.0" y="744.0" type="line" smooth="yes"/>
      <point x="262.0" y="744.0" type="line" smooth="yes"/>
      <point x="259.0" y="800.0" type="line" smooth="yes"/>
      <point x="393.0" y="800.0" type="line" smooth="yes"/>
    </contour>
    <contour>
      <point x="285.0" y="400.0" type="line" smooth="yes"/>
      <point x="312.0" y="428.0" type="line" smooth="yes"/>
      <point x="414.0" y="428.0" type="line" smooth="yes"/>
      <point x="443.0" y="400.0" type="line" smooth="yes"/>
      <point x="417.0" y="372.0" type="line" smooth="yes"/>
      <point x="315.0" y="372.0" type="line" smooth="yes"/>
    </contour>
    <contour>
      <point x="425.0" y="76.0" type="line" smooth="yes"/>
      <point x="415.0" y="76.0" type="line" smooth="yes"/>
      <point x="326.0" y="245.0" type="line" smooth="yes"/>
      <point x="321.0" y="352.0" type="line" smooth="yes"/>
      <point x="331.0" y="352.0" type="line" smooth="yes"/>
      <point x="419.0" y="183.0" type="line" smooth="yes"/>
    </contour>
    <contour>
      <point x="260.0" y="76.0" type="line" smooth="yes"/>
      <point x="245.0" y="358.0" type="line" smooth="yes"/>
      <point x="272.0" y="386.0" type="line" smooth="yes"/>
      <point x="301.0" y="358.0" type="line" smooth="yes"/>
      <point x="316.0" y="76.0" type="line" smooth="yes"/>
    </contour>
    <contour>
      <point x="150.0" y="76.0" type="line" smooth="yes"/>
      <point x="144.0" y="183.0" type="line" smooth="yes"/>
      <point x="216.0" y="352.0" type="line" smooth="yes"/>
      <point x="226.0" y="352.0" type="line" smooth="yes"/>
      <point x="231.0" y="245.0" type="line" smooth="yes"/>
      <point x="160.0" y="76.0" type="line" smooth="yes"/>
    </contour>
    <contour>
      <point x="391.0" y="724.0" type="line" smooth="yes"/>
      <point x="397.0" y="617.0" type="line" smooth="yes"/>
      <point x="326.0" y="448.0" type="line" smooth="yes"/>
      <point x="316.0" y="448.0" type="line" smooth="yes"/>
      <point x="310.0" y="555.0" type="line" smooth="yes"/>
      <point x="381.0" y="724.0" type="line" smooth="yes"/>
    </contour>
    <contour>
      <point x="226.0" y="724.0" type="line" smooth="yes"/>
      <point x="282.0" y="724.0" type="line" smooth="yes"/>
      <point x="297.0" y="442.0" type="line" smooth="yes"/>
      <point x="270.0" y="414.0" type="line" smooth="yes"/>
      <point x="241.0" y="442.0" type="line" smooth="yes"/>
    </contour>
    <contour>
      <point x="116.0" y="724.0" type="line" smooth="yes"/>
      <point x="126.0" y="724.0" type="line" smooth="yes"/>
      <point x="215.0" y="555.0" type="line" smooth="yes"/>
      <point x="221.0" y="448.0" type="line" smooth="yes"/>
      <point x="211.0" y="448.0" type="line" smooth="yes"/>
      <point x="122.0" y="617.0" type="line" smooth="yes"/>
    </contour>
    <contour>
      <point x="548.0" y="0.0" type="curve" smooth="yes"/>
      <point x="547.0" y="19.0"/>
      <point x="562.0" y="35.0"/>
      <point x="581.0" y="35.0" type="curve" smooth="yes"/>
      <point x="600.0" y="35.0"/>
      <point x="617.0" y="19.0"/>
      <point x="618.0" y="0.0" type="curve" smooth="yes"/>
      <point x="619.0" y="-19.0"/>
      <point x="604.0" y="-35.0"/>
      <point x="585.0" y="-35.0" type="curve" smooth="yes"/>
      <point x="566.0" y="-35.0"/>
      <point x="549.0" y="-19.0"/>
    </contour>
    <contour>
      <point x="99.0" y="400.0" type="line" smooth="yes"/>
      <point x="126.0" y="428.0" type="line" smooth="yes"/>
      <point x="228.0" y="428.0" type="line" smooth="yes"/>
      <point x="257.0" y="400.0" type="line" smooth="yes"/>
      <point x="231.0" y="372.0" type="line" smooth="yes"/>
      <point x="129.0" y="372.0" type="line" smooth="yes"/>
    </contour>
    <contour>
      <point x="84.0" y="414.0" type="line" smooth="yes"/>
      <point x="55.0" y="442.0" type="line" smooth="yes"/>
      <point x="40.0" y="730.0" type="line" smooth="yes"/>
      <point x="66.0" y="758.0" type="line" smooth="yes"/>
      <point x="96.0" y="730.0" type="line" smooth="yes"/>
      <point x="111.0" y="442.0" type="line" smooth="yes"/>
    </contour>
    <contour>
      <point x="104.0" y="42.0" type="line" smooth="yes"/>
      <point x="74.0" y="70.0" type="line" smooth="yes"/>
      <point x="59.0" y="358.0" type="line" smooth="yes"/>
      <point x="86.0" y="386.0" type="line" smooth="yes"/>
      <point x="115.0" y="358.0" type="line" smooth="yes"/>
      <point x="130.0" y="70.0" type="line" smooth="yes"/>
    </contour>
    <contour>
      <point x="119.0" y="28.0" type="line" smooth="yes"/>
      <point x="145.0" y="56.0" type="line" smooth="yes"/>
      <point x="279.0" y="56.0" type="line" smooth="yes"/>
      <point x="282.0" y="0.0" type="line" smooth="yes"/>
      <point x="148.0" y="0.0" type="line" smooth="yes"/>
    </contour>
    <contour>
      <point x="475.0" y="42.0" type="line" smooth="yes"/>
      <point x="445.0" y="70.0" type="line" smooth="yes"/>
      <point x="430.0" y="358.0" type="line" smooth="yes"/>
      <point x="457.0" y="386.0" type="line" smooth="yes"/>
      <point x="486.0" y="358.0" type="line" smooth="yes"/>
      <point x="501.0" y="70.0" type="line" smooth="yes"/>
    </contour>
    <contour>
      <point x="455.0" y="414.0" type="line" smooth="yes"/>
      <point x="426.0" y="442.0" type="line" smooth="yes"/>
      <point x="411.0" y="730.0" type="line" smooth="yes"/>
      <point x="437.0" y="758.0" type="line" smooth="yes"/>
      <point x="467.0" y="730.0" type="line" smooth="yes"/>
      <point x="482.0" y="442.0" type="line" smooth="yes"/>
    </contour>
    <contour>
      <point x="80.0" y="772.0" type="line" smooth="yes"/>
      <point x="106.0" y="800.0" type="line" smooth="yes"/>
      <point x="240.0" y="800.0" type="line" smooth="yes"/>
      <point x="243.0" y="744.0" type="line" smooth="yes"/>
      <point x="109.0" y="744.0" type="line" smooth="yes"/>
    </contour>
  </outline>
</glyph>
<glyph name="unie65c" format="2">
  <advance width="583"/>
  <unicode hex="E65C"/>
  <outline>
    <contour>
      <point x="426.0" y="28.0" type="line" smooth="yes"/>
      <point x="399.0" y="0.0" type="line" smooth="yes"/>
      <point x="274.0" y="0.0" type="line" smooth="yes"/>
      <point x="277.0" y="56.0" type="line" smooth="yes"/>
      <point x="401.0" y="56.0" type="line" smooth="yes"/>
    </contour>
    <contour>
      <point x="144.0" y="76.0" type="line" smooth="yes"/>
      <point x="150.0" y="183.0" type="line" smooth="yes"/>
      <point x="233.0" y="352.0" type="line" smooth="yes"/>
      <point x="242.0" y="352.0" type="line" smooth="yes"/>
      <point x="237.0" y="245.0" type="line" smooth="yes"/>
      <point x="153.0" y="76.0" type="line" smooth="yes"/>
    </contour>
    <contour>
      <point x="278.0" y="724.0" type="line" smooth="yes"/>
      <point x="330.0" y="724.0" type="line" smooth="yes"/>
      <point x="315.0" y="442.0" type="line" smooth="yes"/>
      <point x="288.0" y="414.0" type="line" smooth="yes"/>
      <point x="263.0" y="442.0" type="line" smooth="yes"/>
    </contour>
    <contour>
      <point x="111.0" y="28.0" type="line" smooth="yes"/>
      <point x="138.0" y="56.0" type="line" smooth="yes"/>
      <point x="263.0" y="56.0" type="line" smooth="yes"/>
      <point x="260.0" y="0.0" type="line" smooth="yes"/>
      <point x="135.0" y="0.0" type="line" smooth="yes"/>
    </contour>
  </outline>
</glyph>
<glyph name="unie65d" format="2">
  <advance width="583"/>
  <unicode hex="E65D"/>
  <outline>
    <contour>
      <point x="503.0" y="772.0" type="line" smooth="yes"/>
      <point x="474.0" y="744.0" type="line" smooth="yes"/>
      <point x="340.0" y="744.0" type="line" smooth="yes"/>
      <point x="343.0" y="800.0" type="line" smooth="yes"/>
      <point x="477.0" y="800.0" type="line" smooth="yes"/>
    </contour>
    <contour>
      <point x="268.0" y="76.0" type="line" smooth="yes"/>
      <point x="283.0" y="358.0" type="line" smooth="yes"/>
      <point x="312.0" y="386.0" type="line" smooth="yes"/>
      <point x="339.0" y="358.0" type="line" smooth="yes"/>
      <point x="324.0" y="76.0" type="line" smooth="yes"/>
    </contour>
    <contour>
      <point x="467.0" y="724.0" type="line" smooth="yes"/>
      <point x="461.0" y="617.0" type="line" smooth="yes"/>
      <point x="372.0" y="448.0" type="line" smooth="yes"/>
      <point x="362.0" y="448.0" type="line" smooth="yes"/>
      <point x="368.0" y="555.0" type="line" smooth="yes"/>
      <point x="457.0" y="724.0" type="line" smooth="yes"/>
    </contour>
    <contour>
      <point x="141.0" y="400.0" type="line" smooth="yes"/>
      <point x="170.0" y="428.0" type="line" smooth="yes"/>
      <point x="272.0" y="428.0" type="line" smooth="yes"/>
      <point x="299.0" y="400.0" type="line" smooth="yes"/>
      <point x="269.0" y="372.0" type="line" smooth="yes"/>
      <point x="167.0" y="372.0" type="line" smooth="yes"/>
    </contour>
    <contour>
      <point x="108.0" y="42.0" type="line" smooth="yes"/>
      <point x="82.0" y="70.0" type="line" smooth="yes"/>
      <point x="97.0" y="358.0" type="line" smooth="yes"/>
      <point x="126.0" y="386.0" type="line" smooth="yes"/>
      <point x="153.0" y="358.0" type="line" smooth="yes"/>
      <point x="138.0" y="70.0" type="line" smooth="yes"/>
    </contour>
    <contour>
      <point x="121.0" y="28.0" type="line" smooth="yes"/>
      <point x="151.0" y="56.0" type="line" smooth="yes"/>
      <point x="285.0" y="56.0" type="line" smooth="yes"/>
      <point x="282.0" y="0.0" type="line" smooth="yes"/>
      <point x="148.0" y="0.0" type="line" smooth="yes"/>
    </contour>
    <contour>
      <point x="160.0" y="772.0" type="line" smooth="yes"/>
      <point x="190.0" y="800.0" type="line" smooth="yes"/>
      <point x="324.0" y="800.0" type="line" smooth="yes"/>
      <point x="321.0" y="744.0" type="line" smooth="yes"/>
      <point x="187.0" y="744.0" type="line" smooth="yes"/>
    </contour>
  </outline>
</glyph>
<glyph name="unie65f" format="2">
  <advance width="583"/>
  <unicode hex="E65F"/>
  <outline>
    <contour>
      <point x="513.92578125" y="772.0" type="line" smooth="yes"/>
      <point x="486.92578125" y="744.0" type="line" smooth="yes"/>
      <point x="361.92578125" y="744.0" type="line" smooth="yes"/>
      <point x="364.92578125" y="800.0" type="line" smooth="yes"/>
      <point x="489.92578125" y="800.0" type="line" smooth="yes"/>
    </contour>
    <contour>
      <point x="316.0" y="400.0" type="line" smooth="yes"/>
      <point x="344.0" y="428.0" type="line" smooth="yes"/>
      <point x="439.0" y="428.0" type="line" smooth="yes"/>
      <point x="463.0" y="400.0" type="line" smooth="yes"/>
      <point x="436.0" y="372.0" type="line" smooth="yes"/>
      <point x="341.0" y="372.0" type="line" smooth="yes"/>
    </contour>
    <contour>
      <point x="244.0" y="76.0" type="line" smooth="yes"/>
      <point x="259.0" y="358.0" type="line" smooth="yes"/>
      <point x="287.0" y="386.0" type="line" smooth="yes"/>
      <point x="311.0" y="358.0" type="line" smooth="yes"/>
      <point x="296.0" y="76.0" type="line" smooth="yes"/>
    </contour>
    <contour>
      <point x="430.0" y="724.0" type="line" smooth="yes"/>
      <point x="425.0" y="617.0" type="line" smooth="yes"/>
      <point x="341.0" y="448.0" type="line" smooth="yes"/>
      <point x="332.0" y="448.0" type="line" smooth="yes"/>
      <point x="338.0" y="555.0" type="line" smooth="yes"/>
      <point x="421.0" y="724.0" type="line" smooth="yes"/>
    </contour>
    <contour>
      <point x="149.991210938" y="772.0" type="line" smooth="yes"/>
      <point x="176.991210938" y="800.0" type="line" smooth="yes"/>
      <point x="301.991210938" y="800.0" type="line" smooth="yes"/>
      <point x="298.991210938" y="744.0" type="line" smooth="yes"/>
      <point x="173.991210938" y="744.0" type="line" smooth="yes"/>
    </contour>
  </outline>
</glyph>
<glyph name="unie662" format="2">
  <advance width="583"/>
  <unicode hex="E662"/>
  <outline>
    <contour>
      <point x="513.92578125" y="772.0" type="line" smooth="yes"/>
      <point x="486.92578125" y="744.0" type="line" smooth="yes"/>
      <point x="361.92578125" y="744.0" type="line" smooth="yes"/>
      <point x="364.92578125" y="800.0" type="line" smooth="yes"/>
      <point x="489.92578125" y="800.0" type="line" smooth="yes"/>
    </contour>
    <contour>
      <point x="130.0" y="400.0" type="line" smooth="yes"/>
      <point x="158.0" y="428.0" type="line" smooth="yes"/>
      <point x="253.0" y="428.0" type="line" smooth="yes"/>
      <point x="277.0" y="400.0" type="line" smooth="yes"/>
      <point x="250.0" y="372.0" type="line" smooth="yes"/>
      <point x="155.0" y="372.0" type="line" smooth="yes"/>
    </contour>
    <contour>
      <point x="119.0" y="414.0" type="line" smooth="yes"/>
      <point x="94.0" y="442.0" type="line" smooth="yes"/>
      <point x="109.0" y="730.0" type="line" smooth="yes"/>
      <point x="137.0" y="758.0" type="line" smooth="yes"/>
      <point x="161.0" y="730.0" type="line" smooth="yes"/>
      <point x="146.0" y="442.0" type="line" smooth="yes"/>
    </contour>
    <contour>
      <point x="99.0" y="42.0" type="line" smooth="yes"/>
      <point x="75.0" y="70.0" type="line" smooth="yes"/>
      <point x="90.0" y="358.0" type="line" smooth="yes"/>
      <point x="117.0" y="386.0" type="line" smooth="yes"/>
      <point x="142.0" y="358.0" type="line" smooth="yes"/>
      <point x="127.0" y="70.0" type="line" smooth="yes"/>
    </contour>
    <contour>
      <point x="149.991210938" y="772.0" type="line" smooth="yes"/>
      <point x="176.991210938" y="800.0" type="line" smooth="yes"/>
      <point x="301.991210938" y="800.0" type="line" smooth="yes"/>
      <point x="298.991210938" y="744.0" type="line" smooth="yes"/>
      <point x="173.991210938" y="744.0" type="line" smooth="yes"/>
    </contour>
  </outline>
</glyph>
<glyph name="unie664" format="2">
  <advance width="583"/>
  <unicode hex="E664"/>
  <outline>
    <contour>
      <point x="423.0" y="772.0" type="line" smooth="yes"/>
      <point x="396.0" y="744.0" type="line" smooth="yes"/>
      <point x="262.0" y="744.0" type="line" smooth="yes"/>
      <point x="259.0" y="800.0" type="line" smooth="yes"/>
      <point x="393.0" y="800.0" type="line" smooth="yes"/>
    </contour>
    <contour>
      <point x="285.0" y="400.0" type="line" smooth="yes"/>
      <point x="312.0" y="428.0" type="line" smooth="yes"/>
      <point x="414.0" y="428.0" type="line" smooth="yes"/>
      <point x="443.0" y="400.0" type="line" smooth="yes"/>
      <point x="417.0" y="372.0" type="line" smooth="yes"/>
      <point x="315.0" y="372.0" type="line" smooth="yes"/>
    </contour>
    <contour>
      <point x="425.0" y="76.0" type="line" smooth="yes"/>
      <point x="415.0" y="76.0" type="line" smooth="yes"/>
      <point x="326.0" y="245.0" type="line" smooth="yes"/>
      <point x="321.0" y="352.0" type="line" smooth="yes"/>
      <point x="331.0" y="352.0" type="line" smooth="yes"/>
      <point x="419.0" y="183.0" type="line" smooth="yes"/>
    </contour>
    <contour>
      <point x="150.0" y="76.0" type="line" smooth="yes"/>
      <point x="144.0" y="183.0" type="line" smooth="yes"/>
      <point x="216.0" y="352.0" type="line" smooth="yes"/>
      <point x="226.0" y="352.0" type="line" smooth="yes"/>
      <point x="231.0" y="245.0" type="line" smooth="yes"/>
      <point x="160.0" y="76.0" type="line" smooth="yes"/>
    </contour>
    <contour>
      <point x="99.0" y="400.0" type="line" smooth="yes"/>
      <point x="126.0" y="428.0" type="line" smooth="yes"/>
      <point x="228.0" y="428.0" type="line" smooth="yes"/>
      <point x="257.0" y="400.0" type="line" smooth="yes"/>
      <point x="231.0" y="372.0" type="line" smooth="yes"/>
      <point x="129.0" y="372.0" type="line" smooth="yes"/>
    </contour>
    <contour>
      <point x="84.0" y="414.0" type="line" smooth="yes"/>
      <point x="55.0" y="442.0" type="line" smooth="yes"/>
      <point x="40.0" y="730.0" type="line" smooth="yes"/>
      <point x="66.0" y="758.0" type="line" smooth="yes"/>
      <point x="96.0" y="730.0" type="line" smooth="yes"/>
      <point x="111.0" y="442.0" type="line" smooth="yes"/>
    </contour>
    <contour>
      <point x="455.0" y="414.0" type="line" smooth="yes"/>
      <point x="426.0" y="442.0" type="line" smooth="yes"/>
      <point x="411.0" y="730.0" type="line" smooth="yes"/>
      <point x="437.0" y="758.0" type="line" smooth="yes"/>
      <point x="467.0" y="730.0" type="line" smooth="yes"/>
      <point x="482.0" y="442.0" type="line" smooth="yes"/>
    </contour>
    <contour>
      <point x="80.0" y="772.0" type="line" smooth="yes"/>
      <point x="106.0" y="800.0" type="line" smooth="yes"/>
      <point x="240.0" y="800.0" type="line" smooth="yes"/>
      <point x="243.0" y="744.0" type="line" smooth="yes"/>
      <point x="109.0" y="744.0" type="line" smooth="yes"/>
    </contour>
  </outline>
</glyph>
<glyph name="unie665" format="2">
  <advance width="583"/>
  <unicode hex="E665"/>
  <outline>
    <contour>
      <point x="462.0" y="28.0" type="line" smooth="yes"/>
      <point x="435.0" y="0.0" type="line" smooth="yes"/>
      <point x="301.0" y="0.0" type="line" smooth="yes"/>
      <point x="298.0" y="56.0" type="line" smooth="yes"/>
      <point x="432.0" y="56.0" type="line" smooth="yes"/>
    </contour>
    <contour>
      <point x="423.0" y="772.0" type="line" smooth="yes"/>
      <point x="396.0" y="744.0" type="line" smooth="yes"/>
      <point x="262.0" y="744.0" type="line" smooth="yes"/>
      <point x="259.0" y="800.0" type="line" smooth="yes"/>
      <point x="393.0" y="800.0" type="line" smooth="yes"/>
    </contour>
    <contour>
      <point x="425.0" y="76.0" type="line" smooth="yes"/>
      <point x="415.0" y="76.0" type="line" smooth="yes"/>
      <point x="326.0" y="245.0" type="line" smooth="yes"/>
      <point x="321.0" y="352.0" type="line" smooth="yes"/>
      <point x="331.0" y="352.0" type="line" smooth="yes"/>
      <point x="419.0" y="183.0" type="line" smooth="yes"/>
    </contour>
    <contour>
      <point x="99.0" y="400.0" type="line" smooth="yes"/>
      <point x="126.0" y="428.0" type="line" smooth="yes"/>
      <point x="228.0" y="428.0" type="line" smooth="yes"/>
      <point x="257.0" y="400.0" type="line" smooth="yes"/>
      <point x="231.0" y="372.0" type="line" smooth="yes"/>
      <point x="129.0" y="372.0" type="line" smooth="yes"/>
    </contour>
    <contour>
      <point x="84.0" y="414.0" type="line" smooth="yes"/>
      <point x="55.0" y="442.0" type="line" smooth="yes"/>
      <point x="40.0" y="730.0" type="line" smooth="yes"/>
      <point x="66.0" y="758.0" type="line" smooth="yes"/>
      <point x="96.0" y="730.0" type="line" smooth="yes"/>
      <point x="111.0" y="442.0" type="line" smooth="yes"/>
    </contour>
    <contour>
      <point x="104.0" y="42.0" type="line" smooth="yes"/>
      <point x="74.0" y="70.0" type="line" smooth="yes"/>
      <point x="59.0" y="358.0" type="line" smooth="yes"/>
      <point x="86.0" y="386.0" type="line" smooth="yes"/>
      <point x="115.0" y="358.0" type="line" smooth="yes"/>
      <point x="130.0" y="70.0" type="line" smooth="yes"/>
    </contour>
    <contour>
      <point x="119.0" y="28.0" type="line" smooth="yes"/>
      <point x="145.0" y="56.0" type="line" smooth="yes"/>
      <point x="279.0" y="56.0" type="line" smooth="yes"/>
      <point x="282.0" y="0.0" type="line" smooth="yes"/>
      <point x="148.0" y="0.0" type="line" smooth="yes"/>
    </contour>
    <contour>
      <point x="80.0" y="772.0" type="line" smooth="yes"/>
      <point x="106.0" y="800.0" type="line" smooth="yes"/>
      <point x="240.0" y="800.0" type="line" smooth="yes"/>
      <point x="243.0" y="744.0" type="line" smooth="yes"/>
      <point x="109.0" y="744.0" type="line" smooth="yes"/>
    </contour>
  </outline>
</glyph>
<glyph name="unie666" format="2">
  <advance width="583"/>
  <unicode hex="E666"/>
  <outline>
    <contour>
      <point x="474.934570312" y="28.0" type="line" smooth="yes"/>
      <point x="447.934570312" y="0.0" type="line" smooth="yes"/>
      <point x="322.934570312" y="0.0" type="line" smooth="yes"/>
      <point x="325.934570312" y="56.0" type="line" smooth="yes"/>
      <point x="450.934570312" y="56.0" type="line" smooth="yes"/>
    </contour>
    <contour>
      <point x="316.0" y="400.0" type="line" smooth="yes"/>
      <point x="344.0" y="428.0" type="line" smooth="yes"/>
      <point x="439.0" y="428.0" type="line" smooth="yes"/>
      <point x="463.0" y="400.0" type="line" smooth="yes"/>
      <point x="436.0" y="372.0" type="line" smooth="yes"/>
      <point x="341.0" y="372.0" type="line" smooth="yes"/>
    </contour>
    <contour>
      <point x="430.0" y="724.0" type="line" smooth="yes"/>
      <point x="425.0" y="617.0" type="line" smooth="yes"/>
      <point x="341.0" y="448.0" type="line" smooth="yes"/>
      <point x="332.0" y="448.0" type="line" smooth="yes"/>
      <point x="338.0" y="555.0" type="line" smooth="yes"/>
      <point x="421.0" y="724.0" type="line" smooth="yes"/>
    </contour>
    <contour>
      <point x="178.0" y="724.0" type="line" smooth="yes"/>
      <point x="187.0" y="724.0" type="line" smooth="yes"/>
      <point x="253.0" y="555.0" type="line" smooth="yes"/>
      <point x="247.0" y="448.0" type="line" smooth="yes"/>
      <point x="238.0" y="448.0" type="line" smooth="yes"/>
      <point x="172.0" y="617.0" type="line" smooth="yes"/>
    </contour>
    <contour>
      <point x="130.0" y="400.0" type="line" smooth="yes"/>
      <point x="158.0" y="428.0" type="line" smooth="yes"/>
      <point x="253.0" y="428.0" type="line" smooth="yes"/>
      <point x="277.0" y="400.0" type="line" smooth="yes"/>
      <point x="250.0" y="372.0" type="line" smooth="yes"/>
      <point x="155.0" y="372.0" type="line" smooth="yes"/>
    </contour>
    <contour>
      <point x="99.0" y="42.0" type="line" smooth="yes"/>
      <point x="75.0" y="70.0" type="line" smooth="yes"/>
      <point x="90.0" y="358.0" type="line" smooth="yes"/>
      <point x="117.0" y="386.0" type="line" smooth="yes"/>
      <point x="142.0" y="358.0" type="line" smooth="yes"/>
      <point x="127.0" y="70.0" type="line" smooth="yes"/>
    </contour>
    <contour>
      <point x="111.0" y="28.0" type="line" smooth="yes"/>
      <point x="138.0" y="56.0" type="line" smooth="yes"/>
      <point x="263.0" y="56.0" type="line" smooth="yes"/>
      <point x="260.0" y="0.0" type="line" smooth="yes"/>
      <point x="135.0" y="0.0" type="line" smooth="yes"/>
    </contour>
    <contour>
      <point x="437.0" y="42.0" type="line" smooth="yes"/>
      <point x="412.0" y="70.0" type="line" smooth="yes"/>
      <point x="427.0" y="358.0" type="line" smooth="yes"/>
      <point x="455.0" y="386.0" type="line" smooth="yes"/>
      <point x="479.0" y="358.0" type="line" smooth="yes"/>
      <point x="464.0" y="70.0" type="line" smooth="yes"/>
    </contour>
  </outline>
</glyph>
<glyph name="unie66b" format="2">
  <advance width="583"/>
  <unicode hex="E66B"/>
  <outline>
    <contour>
      <point x="316.0" y="400.0" type="line" smooth="yes"/>
      <point x="344.0" y="428.0" type="line" smooth="yes"/>
      <point x="439.0" y="428.0" type="line" smooth="yes"/>
      <point x="463.0" y="400.0" type="line" smooth="yes"/>
      <point x="436.0" y="372.0" type="line" smooth="yes"/>
      <point x="341.0" y="372.0" type="line" smooth="yes"/>
    </contour>
    <contour>
      <point x="396.0" y="76.0" type="line" smooth="yes"/>
      <point x="387.0" y="76.0" type="line" smooth="yes"/>
      <point x="321.0" y="245.0" type="line" smooth="yes"/>
      <point x="327.0" y="352.0" type="line" smooth="yes"/>
      <point x="336.0" y="352.0" type="line" smooth="yes"/>
      <point x="402.0" y="183.0" type="line" smooth="yes"/>
    </contour>
    <contour>
      <point x="144.0" y="76.0" type="line" smooth="yes"/>
      <point x="150.0" y="183.0" type="line" smooth="yes"/>
      <point x="233.0" y="352.0" type="line" smooth="yes"/>
      <point x="242.0" y="352.0" type="line" smooth="yes"/>
      <point x="237.0" y="245.0" type="line" smooth="yes"/>
      <point x="153.0" y="76.0" type="line" smooth="yes"/>
    </contour>
    <contour>
      <point x="178.0" y="724.0" type="line" smooth="yes"/>
      <point x="187.0" y="724.0" type="line" smooth="yes"/>
      <point x="253.0" y="555.0" type="line" smooth="yes"/>
      <point x="247.0" y="448.0" type="line" smooth="yes"/>
      <point x="238.0" y="448.0" type="line" smooth="yes"/>
      <point x="172.0" y="617.0" type="line" smooth="yes"/>
    </contour>
  </outline>
</glyph>
<glyph name="unie66c" format="2">
  <advance width="583"/>
  <unicode hex="E66C"/>
  <outline>
    <contour>
      <point x="433.0" y="76.0" type="line" smooth="yes"/>
      <point x="423.0" y="76.0" type="line" smooth="yes"/>
      <point x="352.0" y="245.0" type="line" smooth="yes"/>
      <point x="357.0" y="352.0" type="line" smooth="yes"/>
      <point x="367.0" y="352.0" type="line" smooth="yes"/>
      <point x="439.0" y="183.0" type="line" smooth="yes"/>
    </contour>
    <contour>
      <point x="467.0" y="724.0" type="line" smooth="yes"/>
      <point x="461.0" y="617.0" type="line" smooth="yes"/>
      <point x="372.0" y="448.0" type="line" smooth="yes"/>
      <point x="362.0" y="448.0" type="line" smooth="yes"/>
      <point x="368.0" y="555.0" type="line" smooth="yes"/>
      <point x="457.0" y="724.0" type="line" smooth="yes"/>
    </contour>
    <contour>
      <point x="192.0" y="724.0" type="line" smooth="yes"/>
      <point x="202.0" y="724.0" type="line" smooth="yes"/>
      <point x="273.0" y="555.0" type="line" smooth="yes"/>
      <point x="267.0" y="448.0" type="line" smooth="yes"/>
      <point x="257.0" y="448.0" type="line" smooth="yes"/>
      <point x="186.0" y="617.0" type="line" smooth="yes"/>
    </contour>
    <contour>
      <point x="141.0" y="400.0" type="line" smooth="yes"/>
      <point x="170.0" y="428.0" type="line" smooth="yes"/>
      <point x="272.0" y="428.0" type="line" smooth="yes"/>
      <point x="299.0" y="400.0" type="line" smooth="yes"/>
      <point x="269.0" y="372.0" type="line" smooth="yes"/>
      <point x="167.0" y="372.0" type="line" smooth="yes"/>
    </contour>
  </outline>
</glyph>
<glyph name="unie66e" format="2">
  <advance width="583"/>
  <unicode hex="E66E"/>
  <outline>
    <contour>
      <point x="474.934570312" y="28.0" type="line" smooth="yes"/>
      <point x="447.934570312" y="0.0" type="line" smooth="yes"/>
      <point x="322.934570312" y="0.0" type="line" smooth="yes"/>
      <point x="325.934570312" y="56.0" type="line" smooth="yes"/>
      <point x="450.934570312" y="56.0" type="line" smooth="yes"/>
    </contour>
    <contour>
      <point x="144.0" y="76.0" type="line" smooth="yes"/>
      <point x="150.0" y="183.0" type="line" smooth="yes"/>
      <point x="233.0" y="352.0" type="line" smooth="yes"/>
      <point x="242.0" y="352.0" type="line" smooth="yes"/>
      <point x="237.0" y="245.0" type="line" smooth="yes"/>
      <point x="153.0" y="76.0" type="line" smooth="yes"/>
    </contour>
    <contour>
      <point x="430.0" y="724.0" type="line" smooth="yes"/>
      <point x="425.0" y="617.0" type="line" smooth="yes"/>
      <point x="341.0" y="448.0" type="line" smooth="yes"/>
      <point x="332.0" y="448.0" type="line" smooth="yes"/>
      <point x="338.0" y="555.0" type="line" smooth="yes"/>
      <point x="421.0" y="724.0" type="line" smooth="yes"/>
    </contour>
    <contour>
      <point x="111.0" y="28.0" type="line" smooth="yes"/>
      <point x="138.0" y="56.0" type="line" smooth="yes"/>
      <point x="263.0" y="56.0" type="line" smooth="yes"/>
      <point x="260.0" y="0.0" type="line" smooth="yes"/>
      <point x="135.0" y="0.0" type="line" smooth="yes"/>
    </contour>
  </outline>
</glyph>
<glyph name="unie66f" format="2">
  <advance width="583"/>
  <unicode hex="E66F"/>
  <outline>
    <contour>
      <point x="465.0" y="772.0" type="line" smooth="yes"/>
      <point x="438.0" y="744.0" type="line" smooth="yes"/>
      <point x="313.0" y="744.0" type="line" smooth="yes"/>
      <point x="316.0" y="800.0" type="line" smooth="yes"/>
      <point x="440.0" y="800.0" type="line" smooth="yes"/>
    </contour>
    <contour>
      <point x="144.0" y="76.0" type="line" smooth="yes"/>
      <point x="150.0" y="183.0" type="line" smooth="yes"/>
      <point x="233.0" y="352.0" type="line" smooth="yes"/>
      <point x="242.0" y="352.0" type="line" smooth="yes"/>
      <point x="237.0" y="245.0" type="line" smooth="yes"/>
      <point x="153.0" y="76.0" type="line" smooth="yes"/>
    </contour>
    <contour>
      <point x="430.0" y="724.0" type="line" smooth="yes"/>
      <point x="425.0" y="617.0" type="line" smooth="yes"/>
      <point x="341.0" y="448.0" type="line" smooth="yes"/>
      <point x="332.0" y="448.0" type="line" smooth="yes"/>
      <point x="338.0" y="555.0" type="line" smooth="yes"/>
      <point x="421.0" y="724.0" type="line" smooth="yes"/>
    </contour>
    <contour>
      <point x="150.0" y="772.0" type="line" smooth="yes"/>
      <point x="177.0" y="800.0" type="line" smooth="yes"/>
      <point x="302.0" y="800.0" type="line" smooth="yes"/>
      <point x="299.0" y="744.0" type="line" smooth="yes"/>
      <point x="174.0" y="744.0" type="line" smooth="yes"/>
    </contour>
  </outline>
</glyph>
<glyph name="unie673" format="2">
  <advance width="583"/>
  <unicode hex="E673"/>
  <outline>
    <contour>
      <point x="426.0" y="28.0" type="line" smooth="yes"/>
      <point x="399.0" y="0.0" type="line" smooth="yes"/>
      <point x="274.0" y="0.0" type="line" smooth="yes"/>
      <point x="277.0" y="56.0" type="line" smooth="yes"/>
      <point x="401.0" y="56.0" type="line" smooth="yes"/>
    </contour>
    <contour>
      <point x="278.0" y="724.0" type="line" smooth="yes"/>
      <point x="330.0" y="724.0" type="line" smooth="yes"/>
      <point x="315.0" y="442.0" type="line" smooth="yes"/>
      <point x="288.0" y="414.0" type="line" smooth="yes"/>
      <point x="263.0" y="442.0" type="line" smooth="yes"/>
    </contour>
    <contour>
      <point x="130.0" y="400.0" type="line" smooth="yes"/>
      <point x="158.0" y="428.0" type="line" smooth="yes"/>
      <point x="253.0" y="428.0" type="line" smooth="yes"/>
      <point x="277.0" y="400.0" type="line" smooth="yes"/>
      <point x="250.0" y="372.0" type="line" smooth="yes"/>
      <point x="155.0" y="372.0" type="line" smooth="yes"/>
    </contour>
    <contour>
      <point x="119.0" y="414.0" type="line" smooth="yes"/>
      <point x="94.0" y="442.0" type="line" smooth="yes"/>
      <point x="109.0" y="730.0" type="line" smooth="yes"/>
      <point x="137.0" y="758.0" type="line" smooth="yes"/>
      <point x="161.0" y="730.0" type="line" smooth="yes"/>
      <point x="146.0" y="442.0" type="line" smooth="yes"/>
    </contour>
    <contour>
      <point x="99.0" y="42.0" type="line" smooth="yes"/>
      <point x="75.0" y="70.0" type="line" smooth="yes"/>
      <point x="90.0" y="358.0" type="line" smooth="yes"/>
      <point x="117.0" y="386.0" type="line" smooth="yes"/>
      <point x="142.0" y="358.0" type="line" smooth="yes"/>
      <point x="127.0" y="70.0" type="line" smooth="yes"/>
    </contour>
    <contour>
      <point x="111.0" y="28.0" type="line" smooth="yes"/>
      <point x="138.0" y="56.0" type="line" smooth="yes"/>
      <point x="263.0" y="56.0" type="line" smooth="yes"/>
      <point x="260.0" y="0.0" type="line" smooth="yes"/>
      <point x="135.0" y="0.0" type="line" smooth="yes"/>
    </contour>
    <contour>
      <point x="150.0" y="772.0" type="line" smooth="yes"/>
      <point x="177.0" y="800.0" type="line" smooth="yes"/>
      <point x="302.0" y="800.0" type="line" smooth="yes"/>
      <point x="299.0" y="744.0" type="line" smooth="yes"/>
      <point x="174.0" y="744.0" type="line" smooth="yes"/>
    </contour>
  </outline>
</glyph>
<glyph name="unie674" format="2">
  <advance width="583"/>
  <unicode hex="E674"/>
  <outline>
    <contour>
      <point x="464.0" y="28.0" type="line" smooth="yes"/>
      <point x="435.0" y="0.0" type="line" smooth="yes"/>
      <point x="301.0" y="0.0" type="line" smooth="yes"/>
      <point x="304.0" y="56.0" type="line" smooth="yes"/>
      <point x="438.0" y="56.0" type="line" smooth="yes"/>
    </contour>
    <contour>
      <point x="121.0" y="28.0" type="line" smooth="yes"/>
      <point x="151.0" y="56.0" type="line" smooth="yes"/>
      <point x="285.0" y="56.0" type="line" smooth="yes"/>
      <point x="282.0" y="0.0" type="line" smooth="yes"/>
      <point x="148.0" y="0.0" type="line" smooth="yes"/>
    </contour>
    <contour>
      <point x="479.0" y="42.0" type="line" smooth="yes"/>
      <point x="453.0" y="70.0" type="line" smooth="yes"/>
      <point x="468.0" y="358.0" type="line" smooth="yes"/>
      <point x="497.0" y="386.0" type="line" smooth="yes"/>
      <point x="524.0" y="358.0" type="line" smooth="yes"/>
      <point x="509.0" y="70.0" type="line" smooth="yes"/>
    </contour>
    <contour>
      <point x="499.0" y="414.0" type="line" smooth="yes"/>
      <point x="472.0" y="442.0" type="line" smooth="yes"/>
      <point x="487.0" y="730.0" type="line" smooth="yes"/>
      <point x="517.0" y="758.0" type="line" smooth="yes"/>
      <point x="543.0" y="730.0" type="line" smooth="yes"/>
      <point x="528.0" y="442.0" type="line" smooth="yes"/>
    </contour>
  </outline>
</glyph>
<glyph name="unie676" format="2">
  <advance width="583"/>
  <unicode hex="E676"/>
  <outline>
    <contour>
      <point x="465.0" y="772.0" type="line" smooth="yes"/>
      <point x="438.0" y="744.0" type="line" smooth="yes"/>
      <point x="313.0" y="744.0" type="line" smooth="yes"/>
      <point x="316.0" y="800.0" type="line" smooth="yes"/>
      <point x="440.0" y="800.0" type="line" smooth="yes"/>
    </contour>
    <contour>
      <point x="244.0" y="76.0" type="line" smooth="yes"/>
      <point x="259.0" y="358.0" type="line" smooth="yes"/>
      <point x="287.0" y="386.0" type="line" smooth="yes"/>
      <point x="311.0" y="358.0" type="line" smooth="yes"/>
      <point x="296.0" y="76.0" type="line" smooth="yes"/>
    </contour>
    <contour>
      <point x="278.0" y="724.0" type="line" smooth="yes"/>
      <point x="330.0" y="724.0" type="line" smooth="yes"/>
      <point x="315.0" y="442.0" type="line" smooth="yes"/>
      <point x="288.0" y="414.0" type="line" smooth="yes"/>
      <point x="263.0" y="442.0" type="line" smooth="yes"/>
    </contour>
    <contour>
      <point x="111.0" y="28.0" type="line" smooth="yes"/>
      <point x="138.0" y="56.0" type="line" smooth="yes"/>
      <point x="263.0" y="56.0" type="line" smooth="yes"/>
      <point x="260.0" y="0.0" type="line" smooth="yes"/>
      <point x="135.0" y="0.0" type="line" smooth="yes"/>
    </contour>
  </outline>
</glyph>
<glyph name="unie67b" format="2">
  <advance width="583"/>
  <unicode hex="E67B"/>
  <outline>
    <contour>
      <point x="503.0" y="772.0" type="line" smooth="yes"/>
      <point x="474.0" y="744.0" type="line" smooth="yes"/>
      <point x="340.0" y="744.0" type="line" smooth="yes"/>
      <point x="343.0" y="800.0" type="line" smooth="yes"/>
      <point x="477.0" y="800.0" type="line" smooth="yes"/>
    </contour>
    <contour>
      <point x="327.0" y="400.0" type="line" smooth="yes"/>
      <point x="356.0" y="428.0" type="line" smooth="yes"/>
      <point x="458.0" y="428.0" type="line" smooth="yes"/>
      <point x="485.0" y="400.0" type="line" smooth="yes"/>
      <point x="455.0" y="372.0" type="line" smooth="yes"/>
      <point x="353.0" y="372.0" type="line" smooth="yes"/>
    </contour>
    <contour>
      <point x="302.0" y="724.0" type="line" smooth="yes"/>
      <point x="358.0" y="724.0" type="line" smooth="yes"/>
      <point x="343.0" y="442.0" type="line" smooth="yes"/>
      <point x="314.0" y="414.0" type="line" smooth="yes"/>
      <point x="287.0" y="442.0" type="line" smooth="yes"/>
    </contour>
    <contour>
      <point x="128.0" y="414.0" type="line" smooth="yes"/>
      <point x="101.0" y="442.0" type="line" smooth="yes"/>
      <point x="116.0" y="730.0" type="line" smooth="yes"/>
      <point x="146.0" y="758.0" type="line" smooth="yes"/>
      <point x="172.0" y="730.0" type="line" smooth="yes"/>
      <point x="157.0" y="442.0" type="line" smooth="yes"/>
    </contour>
    <contour>
      <point x="108.0" y="42.0" type="line" smooth="yes"/>
      <point x="82.0" y="70.0" type="line" smooth="yes"/>
      <point x="97.0" y="358.0" type="line" smooth="yes"/>
      <point x="126.0" y="386.0" type="line" smooth="yes"/>
      <point x="153.0" y="358.0" type="line" smooth="yes"/>
      <point x="138.0" y="70.0" type="line" smooth="yes"/>
    </contour>
    <contour>
      <point x="499.0" y="414.0" type="line" smooth="yes"/>
      <point x="472.0" y="442.0" type="line" smooth="yes"/>
      <point x="487.0" y="730.0" type="line" smooth="yes"/>
      <point x="517.0" y="758.0" type="line" smooth="yes"/>
      <point x="543.0" y="730.0" type="line" smooth="yes"/>
      <point x="528.0" y="442.0" type="line" smooth="yes"/>
    </contour>
    <contour>
      <point x="160.0" y="772.0" type="line" smooth="yes"/>
      <point x="190.0" y="800.0" type="line" smooth="yes"/>
      <point x="324.0" y="800.0" type="line" smooth="yes"/>
      <point x="321.0" y="744.0" type="line" smooth="yes"/>
      <point x="187.0" y="744.0" type="line" smooth="yes"/>
    </contour>
  </outline>
</glyph>
<glyph name="unie67e" format="2">
  <advance width="583"/>
  <unicode hex="E67E"/>
  <outline>
    <contour>
      <point x="513.92578125" y="772.0" type="line" smooth="yes"/>
      <point x="486.92578125" y="744.0" type="line" smooth="yes"/>
      <point x="361.92578125" y="744.0" type="line" smooth="yes"/>
      <point x="364.92578125" y="800.0" type="line" smooth="yes"/>
      <point x="489.92578125" y="800.0" type="line" smooth="yes"/>
    </contour>
    <contour>
      <point x="119.0" y="414.0" type="line" smooth="yes"/>
      <point x="94.0" y="442.0" type="line" smooth="yes"/>
      <point x="109.0" y="730.0" type="line" smooth="yes"/>
      <point x="137.0" y="758.0" type="line" smooth="yes"/>
      <point x="161.0" y="730.0" type="line" smooth="yes"/>
      <point x="146.0" y="442.0" type="line" smooth="yes"/>
    </contour>
    <contour>
      <point x="99.0" y="42.0" type="line" smooth="yes"/>
      <point x="75.0" y="70.0" type="line" smooth="yes"/>
      <point x="90.0" y="358.0" type="line" smooth="yes"/>
      <point x="117.0" y="386.0" type="line" smooth="yes"/>
      <point x="142.0" y="358.0" type="line" smooth="yes"/>
      <point x="127.0" y="70.0" type="line" smooth="yes"/>
    </contour>
    <contour>
      <point x="437.0" y="42.0" type="line" smooth="yes"/>
      <point x="412.0" y="70.0" type="line" smooth="yes"/>
      <point x="427.0" y="358.0" type="line" smooth="yes"/>
      <point x="455.0" y="386.0" type="line" smooth="yes"/>
      <point x="479.0" y="358.0" type="line" smooth="yes"/>
      <point x="464.0" y="70.0" type="line" smooth="yes"/>
    </contour>
    <contour>
      <point x="456.0" y="414.0" type="line" smooth="yes"/>
      <point x="432.0" y="442.0" type="line" smooth="yes"/>
      <point x="447.0" y="730.0" type="line" smooth="yes"/>
      <point x="474.0" y="758.0" type="line" smooth="yes"/>
      <point x="499.0" y="730.0" type="line" smooth="yes"/>
      <point x="484.0" y="442.0" type="line" smooth="yes"/>
    </contour>
    <contour>
      <point x="149.991210938" y="772.0" type="line" smooth="yes"/>
      <point x="176.991210938" y="800.0" type="line" smooth="yes"/>
      <point x="301.991210938" y="800.0" type="line" smooth="yes"/>
      <point x="298.991210938" y="744.0" type="line" smooth="yes"/>
      <point x="173.991210938" y="744.0" type="line" smooth="yes"/>
    </contour>
  </outline>
</glyph>
<glyph name="u10451" format="2">
  <advance width="583"/>
  <unicode hex="10451"/>
  <outline>
    <contour>
      <point x="430.0" y="724.0" type="line" smooth="yes"/>
      <point x="425.0" y="617.0" type="line" smooth="yes"/>
      <point x="341.0" y="448.0" type="line" smooth="yes"/>
      <point x="332.0" y="448.0" type="line" smooth="yes"/>
      <point x="338.0" y="555.0" type="line" smooth="yes"/>
      <point x="421.0" y="724.0" type="line" smooth="yes"/>
    </contour>
    <contour>
      <point x="437.0" y="42.0" type="line" smooth="yes"/>
      <point x="412.0" y="70.0" type="line" smooth="yes"/>
      <point x="427.0" y="358.0" type="line" smooth="yes"/>
      <point x="455.0" y="386.0" type="line" smooth="yes"/>
      <point x="479.0" y="358.0" type="line" smooth="yes"/>
      <point x="464.0" y="70.0" type="line" smooth="yes"/>
    </contour>
    <contour>
      <point x="456.0" y="414.0" type="line" smooth="yes"/>
      <point x="432.0" y="442.0" type="line" smooth="yes"/>
      <point x="447.0" y="730.0" type="line" smooth="yes"/>
      <point x="474.0" y="758.0" type="line" smooth="yes"/>
      <point x="499.0" y="730.0" type="line" smooth="yes"/>
      <point x="484.0" y="442.0" type="line" smooth="yes"/>
    </contour>
  </outline>
</glyph>
<glyph name="u10456" format="2">
  <advance width="583"/>
  <unicode hex="10456"/>
  <outline>
    <contour>
      <point x="474.934570312" y="28.0" type="line" smooth="yes"/>
      <point x="447.934570312" y="0.0" type="line" smooth="yes"/>
      <point x="322.934570312" y="0.0" type="line" smooth="yes"/>
      <point x="325.934570312" y="56.0" type="line" smooth="yes"/>
      <point x="450.934570312" y="56.0" type="line" smooth="yes"/>
    </contour>
    <contour>
      <point x="244.0" y="76.0" type="line" smooth="yes"/>
      <point x="259.0" y="358.0" type="line" smooth="yes"/>
      <point x="287.0" y="386.0" type="line" smooth="yes"/>
      <point x="311.0" y="358.0" type="line" smooth="yes"/>
      <point x="296.0" y="76.0" type="line" smooth="yes"/>
    </contour>
    <contour>
      <point x="430.0" y="724.0" type="line" smooth="yes"/>
      <point x="425.0" y="617.0" type="line" smooth="yes"/>
      <point x="341.0" y="448.0" type="line" smooth="yes"/>
      <point x="332.0" y="448.0" type="line" smooth="yes"/>
      <point x="338.0" y="555.0" type="line" smooth="yes"/>
      <point x="421.0" y="724.0" type="line" smooth="yes"/>
    </contour>
    <contour>
      <point x="437.0" y="42.0" type="line" smooth="yes"/>
      <point x="412.0" y="70.0" type="line" smooth="yes"/>
      <point x="427.0" y="358.0" type="line" smooth="yes"/>
      <point x="455.0" y="386.0" type="line" smooth="yes"/>
      <point x="479.0" y="358.0" type="line" smooth="yes"/>
      <point x="464.0" y="70.0" type="line" smooth="yes"/>
    </contour>
  </outline>
</glyph>
<glyph name="u10457" format="2">
  <advance width="583"/>
  <unicode hex="10457"/>
  <outline>
    <contour>
      <point x="464.0" y="28.0" type="line" smooth="yes"/>
      <point x="435.0" y="0.0" type="line" smooth="yes"/>
      <point x="301.0" y="0.0" type="line" smooth="yes"/>
      <point x="304.0" y="56.0" type="line" smooth="yes"/>
      <point x="438.0" y="56.0" type="line" smooth="yes"/>
    </contour>
    <contour>
      <point x="268.0" y="76.0" type="line" smooth="yes"/>
      <point x="283.0" y="358.0" type="line" smooth="yes"/>
      <point x="312.0" y="386.0" type="line" smooth="yes"/>
      <point x="339.0" y="358.0" type="line" smooth="yes"/>
      <point x="324.0" y="76.0" type="line" smooth="yes"/>
    </contour>
    <contour>
      <point x="467.0" y="724.0" type="line" smooth="yes"/>
      <point x="461.0" y="617.0" type="line" smooth="yes"/>
      <point x="372.0" y="448.0" type="line" smooth="yes"/>
      <point x="362.0" y="448.0" type="line" smooth="yes"/>
      <point x="368.0" y="555.0" type="line" smooth="yes"/>
      <point x="457.0" y="724.0" type="line" smooth="yes"/>
    </contour>
    <contour>
      <point x="141.0" y="400.0" type="line" smooth="yes"/>
      <point x="170.0" y="428.0" type="line" smooth="yes"/>
      <point x="272.0" y="428.0" type="line" smooth="yes"/>
      <point x="299.0" y="400.0" type="line" smooth="yes"/>
      <point x="269.0" y="372.0" type="line" smooth="yes"/>
      <point x="167.0" y="372.0" type="line" smooth="yes"/>
    </contour>
    <contour>
      <point x="479.0" y="42.0" type="line" smooth="yes"/>
      <point x="453.0" y="70.0" type="line" smooth="yes"/>
      <point x="468.0" y="358.0" type="line" smooth="yes"/>
      <point x="497.0" y="386.0" type="line" smooth="yes"/>
      <point x="524.0" y="358.0" type="line" smooth="yes"/>
      <point x="509.0" y="70.0" type="line" smooth="yes"/>
    </contour>
  </outline>
</glyph>
<glyph name="u10460" format="2">
  <advance width="583"/>
  <unicode hex="10460"/>
  <outline>
    <contour>
      <point x="144.0" y="76.0" type="line" smooth="yes"/>
      <point x="150.0" y="183.0" type="line" smooth="yes"/>
      <point x="233.0" y="352.0" type="line" smooth="yes"/>
      <point x="242.0" y="352.0" type="line" smooth="yes"/>
      <point x="237.0" y="245.0" type="line" smooth="yes"/>
      <point x="153.0" y="76.0" type="line" smooth="yes"/>
    </contour>
    <contour>
      <point x="278.0" y="724.0" type="line" smooth="yes"/>
      <point x="330.0" y="724.0" type="line" smooth="yes"/>
      <point x="315.0" y="442.0" type="line" smooth="yes"/>
      <point x="288.0" y="414.0" type="line" smooth="yes"/>
      <point x="263.0" y="442.0" type="line" smooth="yes"/>
    </contour>
    <contour>
      <point x="119.0" y="414.0" type="line" smooth="yes"/>
      <point x="94.0" y="442.0" type="line" smooth="yes"/>
      <point x="109.0" y="730.0" type="line" smooth="yes"/>
      <point x="137.0" y="758.0" type="line" smooth="yes"/>
      <point x="161.0" y="730.0" type="line" smooth="yes"/>
      <point x="146.0" y="442.0" type="line" smooth="yes"/>
    </contour>
    <contour>
      <point x="150.0" y="772.0" type="line" smooth="yes"/>
      <point x="177.0" y="800.0" type="line" smooth="yes"/>
      <point x="302.0" y="800.0" type="line" smooth="yes"/>
      <point x="299.0" y="744.0" type="line" smooth="yes"/>
      <point x="174.0" y="744.0" type="line" smooth="yes"/>
    </contour>
  </outline>
</glyph>
<glyph name="u1046c" format="2">
  <advance width="583"/>
  <unicode hex="1046C"/>
  <outline>
    <contour>
      <point x="462.0" y="28.0" type="line" smooth="yes"/>
      <point x="435.0" y="0.0" type="line" smooth="yes"/>
      <point x="301.0" y="0.0" type="line" smooth="yes"/>
      <point x="298.0" y="56.0" type="line" smooth="yes"/>
      <point x="432.0" y="56.0" type="line" smooth="yes"/>
    </contour>
    <contour>
      <point x="260.0" y="76.0" type="line" smooth="yes"/>
      <point x="245.0" y="358.0" type="line" smooth="yes"/>
      <point x="272.0" y="386.0" type="line" smooth="yes"/>
      <point x="301.0" y="358.0" type="line" smooth="yes"/>
      <point x="316.0" y="76.0" type="line" smooth="yes"/>
    </contour>
    <contour>
      <point x="391.0" y="724.0" type="line" smooth="yes"/>
      <point x="397.0" y="617.0" type="line" smooth="yes"/>
      <point x="326.0" y="448.0" type="line" smooth="yes"/>
      <point x="316.0" y="448.0" type="line" smooth="yes"/>
      <point x="310.0" y="555.0" type="line" smooth="yes"/>
      <point x="381.0" y="724.0" type="line" smooth="yes"/>
    </contour>
    <contour>
      <point x="99.0" y="400.0" type="line" smooth="yes"/>
      <point x="126.0" y="428.0" type="line" smooth="yes"/>
      <point x="228.0" y="428.0" type="line" smooth="yes"/>
      <point x="257.0" y="400.0" type="line" smooth="yes"/>
      <point x="231.0" y="372.0" type="line" smooth="yes"/>
      <point x="129.0" y="372.0" type="line" smooth="yes"/>
    </contour>
  </outline>
</glyph>
<glyph name="u10471" format="2">
  <advance width="583"/>
  <unicode hex="10471"/>
  <outline>
    <contour>
      <point x="465.0" y="772.0" type="line" smooth="yes"/>
      <point x="438.0" y="744.0" type="line" smooth="yes"/>
      <point x="313.0" y="744.0" type="line" smooth="yes"/>
      <point x="316.0" y="800.0" type="line" smooth="yes"/>
      <point x="440.0" y="800.0" type="line" smooth="yes"/>
    </contour>
    <contour>
      <point x="396.0" y="76.0" type="line" smooth="yes"/>
      <point x="387.0" y="76.0" type="line" smooth="yes"/>
      <point x="321.0" y="245.0" type="line" smooth="yes"/>
      <point x="327.0" y="352.0" type="line" smooth="yes"/>
      <point x="336.0" y="352.0" type="line" smooth="yes"/>
      <point x="402.0" y="183.0" type="line" smooth="yes"/>
    </contour>
    <contour>
      <point x="178.0" y="724.0" type="line" smooth="yes"/>
      <point x="187.0" y="724.0" type="line" smooth="yes"/>
      <point x="253.0" y="555.0" type="line" smooth="yes"/>
      <point x="247.0" y="448.0" type="line" smooth="yes"/>
      <point x="238.0" y="448.0" type="line" smooth="yes"/>
      <point x="172.0" y="617.0" type="line" smooth="yes"/>
    </contour>
    <contour>
      <point x="150.0" y="772.0" type="line" smooth="yes"/>
      <point x="177.0" y="800.0" type="line" smooth="yes"/>
      <point x="302.0" y="800.0" type="line" smooth="yes"/>
      <point x="299.0" y="744.0" type="line" smooth="yes"/>
      <point x="174.0" y="744.0" type="line" smooth="yes"/>
    </contour>
  </outline>
</glyph>
<glyph name="u10473" format="2">
  <advance width="583"/>
  <unicode hex="10473"/>
  <outline>
    <contour>
      <point x="513.92578125" y="772.0" type="line" smooth="yes"/>
      <point x="486.92578125" y="744.0" type="line" smooth="yes"/>
      <point x="361.92578125" y="744.0" type="line" smooth="yes"/>
      <point x="364.92578125" y="800.0" type="line" smooth="yes"/>
      <point x="489.92578125" y="800.0" type="line" smooth="yes"/>
    </contour>
    <contour>
      <point x="244.0" y="76.0" type="line" smooth="yes"/>
      <point x="259.0" y="358.0" type="line" smooth="yes"/>
      <point x="287.0" y="386.0" type="line" smooth="yes"/>
      <point x="311.0" y="358.0" type="line" smooth="yes"/>
      <point x="296.0" y="76.0" type="line" smooth="yes"/>
    </contour>
    <contour>
      <point x="430.0" y="724.0" type="line" smooth="yes"/>
      <point x="425.0" y="617.0" type="line" smooth="yes"/>
      <point x="341.0" y="448.0" type="line" smooth="yes"/>
      <point x="332.0" y="448.0" type="line" smooth="yes"/>
      <point x="338.0" y="555.0" type="line" smooth="yes"/>
      <point x="421.0" y="724.0" type="line" smooth="yes"/>
    </contour>
    <contour>
      <point x="149.991210938" y="772.0" type="line" smooth="yes"/>
      <point x="176.991210938" y="800.0" type="line" smooth="yes"/>
      <point x="301.991210938" y="800.0" type="line" smooth="yes"/>
      <point x="298.991210938" y="744.0" type="line" smooth="yes"/>
      <point x="173.991210938" y="744.0" type="line" smooth="yes"/>
    </contour>
  </outline>
</glyph>
<glyph name="u10476" format="2">
  <advance width="583"/>
  <unicode hex="10476"/>
  <outline>
    <contour>
      <point x="327.0" y="400.0" type="line" smooth="yes"/>
      <point x="356.0" y="428.0" type="line" smooth="yes"/>
      <point x="458.0" y="428.0" type="line" smooth="yes"/>
      <point x="485.0" y="400.0" type="line" smooth="yes"/>
      <point x="455.0" y="372.0" type="line" smooth="yes"/>
      <point x="353.0" y="372.0" type="line" smooth="yes"/>
    </contour>
    <contour>
      <point x="158.0" y="76.0" type="line" smooth="yes"/>
      <point x="164.0" y="183.0" type="line" smooth="yes"/>
      <point x="252.0" y="352.0" type="line" smooth="yes"/>
      <point x="262.0" y="352.0" type="line" smooth="yes"/>
      <point x="257.0" y="245.0" type="line" smooth="yes"/>
      <point x="168.0" y="76.0" type="line" smooth="yes"/>
    </contour>
    <contour>
      <point x="302.0" y="724.0" type="line" smooth="yes"/>
      <point x="358.0" y="724.0" type="line" smooth="yes"/>
      <point x="343.0" y="442.0" type="line" smooth="yes"/>
      <point x="314.0" y="414.0" type="line" smooth="yes"/>
      <point x="287.0" y="442.0" type="line" smooth="yes"/>
    </contour>
    <contour>
      <point x="160.0" y="772.0" type="line" smooth="yes"/>
      <point x="190.0" y="800.0" type="line" smooth="yes"/>
      <point x="324.0" y="800.0" type="line" smooth="yes"/>
      <point x="321.0" y="744.0" type="line" smooth="yes"/>
      <point x="187.0" y="744.0" type="line" smooth="yes"/>
    </contour>
  </outline>
</glyph>
<glyph name="u1047a" format="2">
  <advance width="583"/>
  <unicode hex="1047A"/>
  <outline>
    <contour>
      <point x="464.0" y="28.0" type="line" smooth="yes"/>
      <point x="435.0" y="0.0" type="line" smooth="yes"/>
      <point x="301.0" y="0.0" type="line" smooth="yes"/>
      <point x="304.0" y="56.0" type="line" smooth="yes"/>
      <point x="438.0" y="56.0" type="line" smooth="yes"/>
    </contour>
    <contour>
      <point x="503.0" y="772.0" type="line" smooth="yes"/>
      <point x="474.0" y="744.0" type="line" smooth="yes"/>
      <point x="340.0" y="744.0" type="line" smooth="yes"/>
      <point x="343.0" y="800.0" type="line" smooth="yes"/>
      <point x="477.0" y="800.0" type="line" smooth="yes"/>
    </contour>
    <contour>
      <point x="302.0" y="724.0" type="line" smooth="yes"/>
      <point x="358.0" y="724.0" type="line" smooth="yes"/>
      <point x="343.0" y="442.0" type="line" smooth="yes"/>
      <point x="314.0" y="414.0" type="line" smooth="yes"/>
      <point x="287.0" y="442.0" type="line" smooth="yes"/>
    </contour>
    <contour>
      <point x="141.0" y="400.0" type="line" smooth="yes"/>
      <point x="170.0" y="428.0" type="line" smooth="yes"/>
      <point x="272.0" y="428.0" type="line" smooth="yes"/>
      <point x="299.0" y="400.0" type="line" smooth="yes"/>
      <point x="269.0" y="372.0" type="line" smooth="yes"/>
      <point x="167.0" y="372.0" type="line" smooth="yes"/>
    </contour>
    <contour>
      <point x="108.0" y="42.0" type="line" smooth="yes"/>
      <point x="82.0" y="70.0" type="line" smooth="yes"/>
      <point x="97.0" y="358.0" type="line" smooth="yes"/>
      <point x="126.0" y="386.0" type="line" smooth="yes"/>
      <point x="153.0" y="358.0" type="line" smooth="yes"/>
      <point x="138.0" y="70.0" type="line" smooth="yes"/>
    </contour>
    <contour>
      <point x="479.0" y="42.0" type="line" smooth="yes"/>
      <point x="453.0" y="70.0" type="line" smooth="yes"/>
      <point x="468.0" y="358.0" type="line" smooth="yes"/>
      <point x="497.0" y="386.0" type="line" smooth="yes"/>
      <point x="524.0" y="358.0" type="line" smooth="yes"/>
      <point x="509.0" y="70.0" type="line" smooth="yes"/>
    </contour>
    <contour>
      <point x="499.0" y="414.0" type="line" smooth="yes"/>
      <point x="472.0" y="442.0" type="line" smooth="yes"/>
      <point x="487.0" y="730.0" type="line" smooth="yes"/>
      <point x="517.0" y="758.0" type="line" smooth="yes"/>
      <point x="543.0" y="730.0" type="line" smooth="yes"/>
      <point x="528.0" y="442.0" type="line" smooth="yes"/>
    </contour>
  </outline>
</glyph>
<glyph name="u1047b" format="2">
  <advance width="583"/>
  <unicode hex="1047B"/>
  <outline>
    <contour>
      <point x="462.0" y="28.0" type="line" smooth="yes"/>
      <point x="435.0" y="0.0" type="line" smooth="yes"/>
      <point x="301.0" y="0.0" type="line" smooth="yes"/>
      <point x="298.0" y="56.0" type="line" smooth="yes"/>
      <point x="432.0" y="56.0" type="line" smooth="yes"/>
    </contour>
    <contour>
      <point x="423.0" y="772.0" type="line" smooth="yes"/>
      <point x="396.0" y="744.0" type="line" smooth="yes"/>
      <point x="262.0" y="744.0" type="line" smooth="yes"/>
      <point x="259.0" y="800.0" type="line" smooth="yes"/>
      <point x="393.0" y="800.0" type="line" smooth="yes"/>
    </contour>
    <contour>
      <point x="260.0" y="76.0" type="line" smooth="yes"/>
      <point x="245.0" y="358.0" type="line" smooth="yes"/>
      <point x="272.0" y="386.0" type="line" smooth="yes"/>
      <point x="301.0" y="358.0" type="line" smooth="yes"/>
      <point x="316.0" y="76.0" type="line" smooth="yes"/>
    </contour>
    <contour>
      <point x="99.0" y="400.0" type="line" smooth="yes"/>
      <point x="126.0" y="428.0" type="line" smooth="yes"/>
      <point x="228.0" y="428.0" type="line" smooth="yes"/>
      <point x="257.0" y="400.0" type="line" smooth="yes"/>
      <point x="231.0" y="372.0" type="line" smooth="yes"/>
      <point x="129.0" y="372.0" type="line" smooth="yes"/>
    </contour>
    <contour>
      <point x="84.0" y="414.0" type="line" smooth="yes"/>
      <point x="55.0" y="442.0" type="line" smooth="yes"/>
      <point x="40.0" y="730.0" type="line" smooth="yes"/>
      <point x="66.0" y="758.0" type="line" smooth="yes"/>
      <point x="96.0" y="730.0" type="line" smooth="yes"/>
      <point x="111.0" y="442.0" type="line" smooth="yes"/>
    </contour>
    <contour>
      <point x="475.0" y="42.0" type="line" smooth="yes"/>
      <point x="445.0" y="70.0" type="line" smooth="yes"/>
      <point x="430.0" y="358.0" type="line" smooth="yes"/>
      <point x="457.0" y="386.0" type="line" smooth="yes"/>
      <point x="486.0" y="358.0" type="line" smooth="yes"/>
      <point x="501.0" y="70.0" type="line" smooth="yes"/>
    </contour>
    <contour>
      <point x="455.0" y="414.0" type="line" smooth="yes"/>
      <point x="426.0" y="442.0" type="line" smooth="yes"/>
      <point x="411.0" y="730.0" type="line" smooth="yes"/>
      <point x="437.0" y="758.0" type="line" smooth="yes"/>
      <point x="467.0" y="730.0" type="line" smooth="yes"/>
      <point x="482.0" y="442.0" type="line" smooth="yes"/>
    </contour>
  </outline>
</glyph>
<glyph name="u1047e" format="2">
  <advance width="583"/>
  <unicode hex="1047E"/>
  <outline>
    <contour>
      <point x="423.0" y="772.0" type="line" smooth="yes"/>
      <point x="396.0" y="744.0" type="line" smooth="yes"/>
      <point x="262.0" y="744.0" type="line" smooth="yes"/>
      <point x="259.0" y="800.0" type="line" smooth="yes"/>
      <point x="393.0" y="800.0" type="line" smooth="yes"/>
    </contour>
    <contour>
      <point x="260.0" y="76.0" type="line" smooth="yes"/>
      <point x="245.0" y="358.0" type="line" smooth="yes"/>
      <point x="272.0" y="386.0" type="line" smooth="yes"/>
      <point x="301.0" y="358.0" type="line" smooth="yes"/>
      <point x="316.0" y="76.0" type="line" smooth="yes"/>
    </contour>
    <contour>
      <point x="226.0" y="724.0" type="line" smooth="yes"/>
      <point x="282.0" y="724.0" type="line" smooth="yes"/>
      <point x="297.0" y="442.0" type="line" smooth="yes"/>
      <point x="270.0" y="414.0" type="line" smooth="yes"/>
      <point x="241.0" y="442.0" type="line" smooth="yes"/>
    </contour>
    <contour>
      <point x="84.0" y="414.0" type="line" smooth="yes"/>
      <point x="55.0" y="442.0" type="line" smooth="yes"/>
      <point x="40.0" y="730.0" type="line" smooth="yes"/>
      <point x="66.0" y="758.0" type="line" smooth="yes"/>
      <point x="96.0" y="730.0" type="line" smooth="yes"/>
      <point x="111.0" y="442.0" type="line" smooth="yes"/>
    </contour>
    <contour>
      <point x="104.0" y="42.0" type="line" smooth="yes"/>
      <point x="74.0" y="70.0" type="line" smooth="yes"/>
      <point x="59.0" y="358.0" type="line" smooth="yes"/>
      <point x="86.0" y="386.0" type="line" smooth="yes"/>
      <point x="115.0" y="358.0" type="line" smooth="yes"/>
      <point x="130.0" y="70.0" type="line" smooth="yes"/>
    </contour>
  </outline>
</glyph>
<glyph name="u1047f" format="2">
  <advance width="583"/>
  <unicode hex="1047F"/>
  <outline>
    <contour>
      <point x="268.0" y="76.0" type="line" smooth="yes"/>
      <point x="283.0" y="358.0" type="line" smooth="yes"/>
      <point x="312.0" y="386.0" type="line" smooth="yes"/>
      <point x="339.0" y="358.0" type="line" smooth="yes"/>
      <point x="324.0" y="76.0" type="line" smooth="yes"/>
    </contour>
    <contour>
      <point x="467.0" y="724.0" type="line" smooth="yes"/>
      <point x="461.0" y="617.0" type="line" smooth="yes"/>
      <point x="372.0" y="448.0" type="line" smooth="yes"/>
      <point x="362.0" y="448.0" type="line" smooth="yes"/>
      <point x="368.0" y="555.0" type="line" smooth="yes"/>
      <point x="457.0" y="724.0" type="line" smooth="yes"/>
    </contour>
    <contour>
      <point x="192.0" y="724.0" type="line" smooth="yes"/>
      <point x="202.0" y="724.0" type="line" smooth="yes"/>
      <point x="273.0" y="555.0" type="line" smooth="yes"/>
      <point x="267.0" y="448.0" type="line" smooth="yes"/>
      <point x="257.0" y="448.0" type="line" smooth="yes"/>
      <point x="186.0" y="617.0" type="line" smooth="yes"/>
    </contour>
    <contour>
      <point x="479.0" y="42.0" type="line" smooth="yes"/>
      <point x="453.0" y="70.0" type="line" smooth="yes"/>
      <point x="468.0" y="358.0" type="line" smooth="yes"/>
      <point x="497.0" y="386.0" type="line" smooth="yes"/>
      <point x="524.0" y="358.0" type="line" smooth="yes"/>
      <point x="509.0" y="70.0" type="line" smooth="yes"/>
    </contour>
    <contour>
      <point x="499.0" y="414.0" type="line" smooth="yes"/>
      <point x="472.0" y="442.0" type="line" smooth="yes"/>
      <point x="487.0" y="730.0" type="line" smooth="yes"/>
      <point x="517.0" y="758.0" type="line" smooth="yes"/>
      <point x="543.0" y="730.0" type="line" smooth="yes"/>
      <point x="528.0" y="442.0" type="line" smooth="yes"/>
    </contour>
  </outline>
</glyph>
